<svg width="558" height="337" viewBox="0 0 558 337" fill="none" xmlns="http://www.w3.org/2000/svg">
<path d="M13.0775 39.744L0.0855002 25.6L13.0775 11.456H26.8375L13.7815 25.6L26.8375 39.744H13.0775ZM50.0555 1.472L48.7755 32.128H39.4955L38.2155 1.472H50.0555ZM44.2955 48.512C42.3755 48.512 40.7968 47.9573 39.5595 46.848C38.3648 45.696 37.7675 44.288 37.7675 42.624C37.7675 40.9173 38.3648 39.488 39.5595 38.336C40.7968 37.184 42.3755 36.608 44.2955 36.608C46.1728 36.608 47.7088 37.184 48.9035 38.336C50.1408 39.488 50.7595 40.9173 50.7595 42.624C50.7595 44.288 50.1408 45.696 48.9035 46.848C47.7088 47.9573 46.1728 48.512 44.2955 48.512ZM77.55 3.072C82.286 3.072 86.4247 4.01066 89.966 5.888C93.5073 7.76533 96.238 10.4107 98.158 13.824C100.121 17.1947 101.102 21.0987 101.102 25.536C101.102 29.9307 100.121 33.8347 98.158 37.248C96.238 40.6613 93.486 43.3067 89.902 45.184C86.3607 47.0613 82.2433 48 77.55 48H60.718V3.072H77.55ZM76.846 38.528C80.9847 38.528 84.206 37.3973 86.51 35.136C88.814 32.8747 89.966 29.6747 89.966 25.536C89.966 21.3973 88.814 18.176 86.51 15.872C84.206 13.568 80.9847 12.416 76.846 12.416H71.662V38.528H76.846ZM128.466 48.448C124.242 48.448 120.359 47.4667 116.818 45.504C113.319 43.5413 110.525 40.8107 108.434 37.312C106.386 33.7707 105.362 29.8027 105.362 25.408C105.362 21.0133 106.386 17.0667 108.434 13.568C110.525 10.0693 113.319 7.33867 116.818 5.376C120.359 3.41333 124.242 2.432 128.466 2.432C132.69 2.432 136.551 3.41333 140.05 5.376C143.591 7.33867 146.365 10.0693 148.37 13.568C150.418 17.0667 151.442 21.0133 151.442 25.408C151.442 29.8027 150.418 33.7707 148.37 37.312C146.322 40.8107 143.549 43.5413 140.05 45.504C136.551 47.4667 132.69 48.448 128.466 48.448ZM128.466 38.464C132.05 38.464 134.909 37.2693 137.042 34.88C139.218 32.4907 140.306 29.3333 140.306 25.408C140.306 21.44 139.218 18.2827 137.042 15.936C134.909 13.5467 132.05 12.352 128.466 12.352C124.839 12.352 121.938 13.5253 119.762 15.872C117.629 18.2187 116.562 21.3973 116.562 25.408C116.562 29.376 117.629 32.5547 119.762 34.944C121.938 37.2907 124.839 38.464 128.466 38.464ZM155.674 25.472C155.674 21.0347 156.635 17.088 158.555 13.632C160.475 10.1333 163.141 7.424 166.555 5.504C170.011 3.54133 173.915 2.56 178.267 2.56C183.6 2.56 188.165 3.968 191.963 6.784C195.76 9.6 198.299 13.44 199.579 18.304H187.547C186.651 16.4267 185.371 14.9973 183.707 14.016C182.085 13.0347 180.229 12.544 178.139 12.544C174.768 12.544 172.037 13.7173 169.947 16.064C167.856 18.4107 166.811 21.5467 166.811 25.472C166.811 29.3973 167.856 32.5333 169.947 34.88C172.037 37.2267 174.768 38.4 178.139 38.4C180.229 38.4 182.085 37.9093 183.707 36.928C185.371 35.9467 186.651 34.5173 187.547 32.64H199.579C198.299 37.504 195.76 41.344 191.963 44.16C188.165 46.9333 183.6 48.32 178.267 48.32C173.915 48.32 170.011 47.36 166.555 45.44C163.141 43.4773 160.475 40.768 158.555 37.312C156.635 33.856 155.674 29.9093 155.674 25.472ZM238.601 3.072V11.84H226.697V48H215.753V11.84H203.849V3.072H238.601ZM282.621 3.072L267.069 33.152V48H256.125V33.152L240.573 3.072H252.989L261.693 21.888L270.333 3.072H282.621ZM321.271 17.536C321.271 20.1387 320.673 22.528 319.479 24.704C318.284 26.8373 316.449 28.5653 313.975 29.888C311.5 31.2107 308.428 31.872 304.759 31.872H297.975V48H287.031V3.072H304.759C308.343 3.072 311.372 3.69066 313.847 4.928C316.321 6.16533 318.177 7.872 319.415 10.048C320.652 12.224 321.271 14.72 321.271 17.536ZM303.927 23.168C306.017 23.168 307.575 22.6773 308.599 21.696C309.623 20.7147 310.135 19.328 310.135 17.536C310.135 15.744 309.623 14.3573 308.599 13.376C307.575 12.3947 306.017 11.904 303.927 11.904H297.975V23.168H303.927ZM337.912 11.84V20.928H352.568V29.376H337.912V39.232H354.488V48H326.968V3.072H354.488V11.84H337.912ZM397.108 11.904C401.204 11.904 404.489 13.2693 406.964 16C409.438 18.688 410.676 22.4 410.676 27.136V48H399.796V28.608C399.796 26.2187 399.177 24.3627 397.94 23.04C396.702 21.7173 395.038 21.056 392.948 21.056C390.857 21.056 389.193 21.7173 387.956 23.04C386.718 24.3627 386.1 26.2187 386.1 28.608V48H375.156V0.639999H386.1V17.088C387.209 15.5093 388.724 14.2507 390.644 13.312C392.564 12.3733 394.718 11.904 397.108 11.904ZM438.185 38.72V48H432.617C428.649 48 425.555 47.04 423.337 45.12C421.118 43.1573 420.009 39.9787 420.009 35.584V21.376H415.657V12.288H420.009V3.584H430.953V12.288H438.121V21.376H430.953V35.712C430.953 36.7787 431.209 37.5467 431.721 38.016C432.233 38.4853 433.086 38.72 434.281 38.72H438.185ZM489.849 11.904C494.286 11.904 497.806 13.248 500.409 15.936C503.054 18.624 504.377 22.3573 504.377 27.136V48H493.497V28.608C493.497 26.304 492.878 24.5333 491.641 23.296C490.446 22.016 488.782 21.376 486.649 21.376C484.515 21.376 482.83 22.016 481.593 23.296C480.398 24.5333 479.801 26.304 479.801 28.608V48H468.921V28.608C468.921 26.304 468.302 24.5333 467.065 23.296C465.87 22.016 464.206 21.376 462.073 21.376C459.939 21.376 458.254 22.016 457.017 23.296C455.822 24.5333 455.225 26.304 455.225 28.608V48H444.281V12.288H455.225V16.768C456.334 15.2747 457.785 14.1013 459.577 13.248C461.369 12.352 463.395 11.904 465.657 11.904C468.345 11.904 470.734 12.48 472.825 13.632C474.958 14.784 476.622 16.4267 477.817 18.56C479.054 16.5973 480.739 14.9973 482.873 13.76C485.006 12.5227 487.331 11.904 489.849 11.904ZM522.975 0.639999V48H512.031V0.639999H522.975ZM530.97 11.456H544.73L557.722 25.6L544.73 39.744H530.97L544.026 25.6L530.97 11.456Z" fill="#4B4848" fill-opacity="0.6"/>
<path d="M158.429 91.584L150.397 84.16L158.429 76.736H161.277L153.213 84.16L161.277 91.584H158.429ZM175.13 78.208C176.453 78.208 177.637 78.4853 178.682 79.04C179.749 79.5947 180.581 80.448 181.178 81.6C181.797 82.7307 182.106 84.1173 182.106 85.76V96H179.898V86.016C179.898 84.1173 179.418 82.6667 178.458 81.664C177.519 80.6613 176.229 80.16 174.586 80.16C172.901 80.16 171.557 80.6933 170.554 81.76C169.551 82.8267 169.05 84.3947 169.05 86.464V96H166.81V72.32H169.05V81.504C169.605 80.4587 170.415 79.648 171.482 79.072C172.57 78.496 173.786 78.208 175.13 78.208ZM189.972 80.416V91.264C189.972 92.3307 190.175 93.0667 190.58 93.472C190.985 93.8773 191.7 94.08 192.724 94.08H194.772V96H192.372C190.793 96 189.62 95.6373 188.852 94.912C188.084 94.1653 187.7 92.9493 187.7 91.264V80.416H185.268V78.528H187.7V74.144H189.972V78.528H194.772V80.416H189.972ZM219.266 78.208C221.314 78.208 222.978 78.8587 224.258 80.16C225.56 81.44 226.21 83.3067 226.21 85.76V96H224.002V86.016C224.002 84.1173 223.544 82.6667 222.626 81.664C221.709 80.6613 220.461 80.16 218.882 80.16C217.24 80.16 215.928 80.704 214.946 81.792C213.965 82.88 213.474 84.4587 213.474 86.528V96H211.266V86.016C211.266 84.1173 210.808 82.6667 209.89 81.664C208.973 80.6613 207.714 80.16 206.114 80.16C204.472 80.16 203.16 80.704 202.178 81.792C201.197 82.88 200.706 84.4587 200.706 86.528V96H198.466V78.528H200.706V81.536C201.261 80.448 202.05 79.6267 203.074 79.072C204.098 78.496 205.24 78.208 206.498 78.208C208.013 78.208 209.336 78.5707 210.466 79.296C211.618 80.0213 212.45 81.088 212.962 82.496C213.432 81.1093 214.232 80.0533 215.362 79.328C216.514 78.5813 217.816 78.208 219.266 78.208ZM233.425 72.32V96H231.185V72.32H233.425ZM249.519 72.32V96H247.279V72.32H249.519ZM253.567 87.232C253.567 85.44 253.919 83.872 254.623 82.528C255.349 81.1627 256.341 80.1173 257.599 79.392C258.879 78.6453 260.319 78.272 261.919 78.272C263.583 78.272 265.013 78.656 266.207 79.424C267.423 80.192 268.298 81.1733 268.831 82.368V78.528H271.071V96H268.831V92.128C268.277 93.3227 267.391 94.3147 266.175 95.104C264.981 95.872 263.551 96.256 261.887 96.256C260.309 96.256 258.879 95.8827 257.599 95.136C256.341 94.3893 255.349 93.3333 254.623 91.968C253.919 90.6027 253.567 89.024 253.567 87.232ZM268.831 87.264C268.831 85.856 268.543 84.6187 267.967 83.552C267.391 82.4853 266.602 81.664 265.599 81.088C264.618 80.512 263.53 80.224 262.335 80.224C261.098 80.224 259.989 80.5013 259.007 81.056C258.026 81.6107 257.247 82.4213 256.671 83.488C256.117 84.5333 255.839 85.7813 255.839 87.232C255.839 88.6613 256.117 89.92 256.671 91.008C257.247 92.0747 258.026 92.896 259.007 93.472C259.989 94.0267 261.098 94.304 262.335 94.304C263.53 94.304 264.618 94.016 265.599 93.44C266.602 92.864 267.391 92.0427 267.967 90.976C268.543 89.9093 268.831 88.672 268.831 87.264ZM284.377 78.208C286.468 78.208 288.174 78.8587 289.497 80.16C290.82 81.44 291.481 83.3067 291.481 85.76V96H289.273V86.016C289.273 84.1173 288.793 82.6667 287.833 81.664C286.894 80.6613 285.604 80.16 283.961 80.16C282.276 80.16 280.932 80.6933 279.929 81.76C278.926 82.8267 278.425 84.3947 278.425 86.464V96H276.185V78.528H278.425V81.504C278.98 80.4373 279.78 79.6267 280.825 79.072C281.87 78.496 283.054 78.208 284.377 78.208ZM303.763 78.272C305.406 78.272 306.835 78.656 308.051 79.424C309.267 80.192 310.142 81.1627 310.675 82.336V78.528H312.915V96.448C312.915 98.048 312.563 99.4667 311.859 100.704C311.176 101.941 310.216 102.891 308.979 103.552C307.742 104.235 306.334 104.576 304.755 104.576C302.515 104.576 300.648 104.043 299.155 102.976C297.683 101.909 296.766 100.459 296.403 98.624H298.611C298.995 99.84 299.72 100.811 300.787 101.536C301.875 102.261 303.198 102.624 304.755 102.624C305.886 102.624 306.899 102.379 307.795 101.888C308.691 101.419 309.395 100.715 309.907 99.776C310.419 98.8373 310.675 97.728 310.675 96.448V92.128C310.12 93.3227 309.235 94.3147 308.019 95.104C306.824 95.872 305.406 96.256 303.763 96.256C302.163 96.256 300.723 95.8827 299.443 95.136C298.184 94.3893 297.192 93.3333 296.467 91.968C295.763 90.6027 295.411 89.024 295.411 87.232C295.411 85.44 295.763 83.872 296.467 82.528C297.192 81.1627 298.184 80.1173 299.443 79.392C300.723 78.6453 302.163 78.272 303.763 78.272ZM310.675 87.264C310.675 85.856 310.387 84.6187 309.811 83.552C309.235 82.4853 308.446 81.664 307.443 81.088C306.462 80.512 305.374 80.224 304.179 80.224C302.942 80.224 301.832 80.5013 300.851 81.056C299.87 81.6107 299.091 82.4213 298.515 83.488C297.96 84.5333 297.683 85.7813 297.683 87.232C297.683 88.6613 297.96 89.92 298.515 91.008C299.091 92.0747 299.87 92.896 300.851 93.472C301.832 94.0267 302.942 94.304 304.179 94.304C305.374 94.304 306.462 94.016 307.443 93.44C308.446 92.864 309.235 92.0427 309.811 90.976C310.387 89.9093 310.675 88.672 310.675 87.264ZM334.445 79.936V81.856H318.125V79.936H334.445ZM334.445 86.464V88.352H318.125V86.464H334.445ZM340.486 70.56L340.166 76.736H338.598L338.278 70.56H340.486ZM344.326 70.56L344.038 76.736H342.47L342.118 70.56H344.326ZM363.899 86.368C363.899 87.136 363.878 87.7227 363.835 88.128H349.339C349.403 89.4507 349.723 90.5813 350.299 91.52C350.875 92.4587 351.633 93.1733 352.571 93.664C353.51 94.1333 354.534 94.368 355.643 94.368C357.094 94.368 358.31 94.016 359.291 93.312C360.294 92.608 360.955 91.6587 361.275 90.464H363.643C363.217 92.1707 362.299 93.568 360.891 94.656C359.505 95.7227 357.755 96.256 355.643 96.256C354.001 96.256 352.529 95.8933 351.227 95.168C349.926 94.4213 348.902 93.376 348.155 92.032C347.43 90.6667 347.067 89.0773 347.067 87.264C347.067 85.4507 347.43 83.8613 348.155 82.496C348.881 81.1307 349.894 80.0853 351.195 79.36C352.497 78.6347 353.979 78.272 355.643 78.272C357.307 78.272 358.758 78.6347 359.995 79.36C361.254 80.0853 362.214 81.0667 362.875 82.304C363.558 83.52 363.899 84.8747 363.899 86.368ZM361.627 86.304C361.649 85.0027 361.382 83.8933 360.827 82.976C360.294 82.0587 359.558 81.3653 358.619 80.896C357.681 80.4267 356.657 80.192 355.547 80.192C353.883 80.192 352.465 80.7253 351.291 81.792C350.118 82.8587 349.467 84.3627 349.339 86.304H361.627ZM376.19 78.208C378.28 78.208 379.987 78.8587 381.31 80.16C382.632 81.44 383.294 83.3067 383.294 85.76V96H381.086V86.016C381.086 84.1173 380.606 82.6667 379.646 81.664C378.707 80.6613 377.416 80.16 375.774 80.16C374.088 80.16 372.744 80.6933 371.742 81.76C370.739 82.8267 370.238 84.3947 370.238 86.464V96H367.998V78.528H370.238V81.504C370.792 80.4373 371.592 79.6267 372.638 79.072C373.683 78.496 374.867 78.208 376.19 78.208ZM389.08 70.56L388.76 76.736H387.192L386.872 70.56H389.08ZM392.92 70.56L392.632 76.736H391.064L390.712 70.56H392.92ZM396.621 76.736H399.469L407.501 84.16L399.469 91.584H396.621L404.685 84.16L396.621 76.736ZM231.695 139.584L223.663 132.16L231.695 124.736H234.543L226.479 132.16L234.543 139.584H231.695ZM248.396 126.208C249.718 126.208 250.902 126.485 251.948 127.04C253.014 127.595 253.846 128.448 254.444 129.6C255.062 130.731 255.372 132.117 255.372 133.76V144H253.164V134.016C253.164 132.117 252.684 130.667 251.724 129.664C250.785 128.661 249.494 128.16 247.852 128.16C246.166 128.16 244.822 128.693 243.82 129.76C242.817 130.827 242.316 132.395 242.316 134.464V144H240.076V120.32H242.316V129.504C242.87 128.459 243.681 127.648 244.748 127.072C245.836 126.496 247.052 126.208 248.396 126.208ZM276.134 134.368C276.134 135.136 276.112 135.723 276.07 136.128H261.574C261.638 137.451 261.958 138.581 262.534 139.52C263.11 140.459 263.867 141.173 264.806 141.664C265.744 142.133 266.768 142.368 267.878 142.368C269.328 142.368 270.544 142.016 271.526 141.312C272.528 140.608 273.19 139.659 273.51 138.464H275.878C275.451 140.171 274.534 141.568 273.126 142.656C271.739 143.723 269.99 144.256 267.878 144.256C266.235 144.256 264.763 143.893 263.462 143.168C262.16 142.421 261.136 141.376 260.39 140.032C259.664 138.667 259.302 137.077 259.302 135.264C259.302 133.451 259.664 131.861 260.39 130.496C261.115 129.131 262.128 128.085 263.43 127.36C264.731 126.635 266.214 126.272 267.878 126.272C269.542 126.272 270.992 126.635 272.23 127.36C273.488 128.085 274.448 129.067 275.11 130.304C275.792 131.52 276.134 132.875 276.134 134.368ZM273.862 134.304C273.883 133.003 273.616 131.893 273.062 130.976C272.528 130.059 271.792 129.365 270.854 128.896C269.915 128.427 268.891 128.192 267.782 128.192C266.118 128.192 264.699 128.725 263.526 129.792C262.352 130.859 261.702 132.363 261.574 134.304H273.862ZM279.208 135.232C279.208 133.44 279.56 131.872 280.264 130.528C280.989 129.163 281.981 128.117 283.24 127.392C284.52 126.645 285.96 126.272 287.56 126.272C289.224 126.272 290.653 126.656 291.848 127.424C293.064 128.192 293.939 129.173 294.472 130.368V126.528H296.712V144H294.472V140.128C293.917 141.323 293.032 142.315 291.816 143.104C290.621 143.872 289.192 144.256 287.528 144.256C285.949 144.256 284.52 143.883 283.24 143.136C281.981 142.389 280.989 141.333 280.264 139.968C279.56 138.603 279.208 137.024 279.208 135.232ZM294.472 135.264C294.472 133.856 294.184 132.619 293.608 131.552C293.032 130.485 292.243 129.664 291.24 129.088C290.259 128.512 289.171 128.224 287.976 128.224C286.739 128.224 285.629 128.501 284.648 129.056C283.667 129.611 282.888 130.421 282.312 131.488C281.757 132.533 281.48 133.781 281.48 135.232C281.48 136.661 281.757 137.92 282.312 139.008C282.888 140.075 283.667 140.896 284.648 141.472C285.629 142.027 286.739 142.304 287.976 142.304C289.171 142.304 290.259 142.016 291.24 141.44C292.243 140.864 293.032 140.043 293.608 138.976C294.184 137.909 294.472 136.672 294.472 135.264ZM300.802 135.232C300.802 133.44 301.164 131.872 301.89 130.528C302.615 129.163 303.607 128.117 304.866 127.392C306.146 126.645 307.586 126.272 309.186 126.272C310.722 126.272 312.108 126.645 313.346 127.392C314.583 128.139 315.49 129.109 316.066 130.304V120.32H318.306V144H316.066V140.096C315.532 141.312 314.658 142.315 313.442 143.104C312.226 143.872 310.796 144.256 309.154 144.256C307.554 144.256 306.114 143.883 304.834 143.136C303.575 142.389 302.583 141.333 301.858 139.968C301.154 138.603 300.802 137.024 300.802 135.232ZM316.066 135.264C316.066 133.856 315.778 132.619 315.202 131.552C314.626 130.485 313.836 129.664 312.834 129.088C311.852 128.512 310.764 128.224 309.57 128.224C308.332 128.224 307.223 128.501 306.242 129.056C305.26 129.611 304.482 130.421 303.906 131.488C303.351 132.533 303.074 133.781 303.074 135.232C303.074 136.661 303.351 137.92 303.906 139.008C304.482 140.075 305.26 140.896 306.242 141.472C307.223 142.027 308.332 142.304 309.57 142.304C310.764 142.304 311.852 142.016 312.834 141.44C313.836 140.864 314.626 140.043 315.202 138.976C315.778 137.909 316.066 136.672 316.066 135.264ZM323.355 124.736H326.203L334.235 132.16L326.203 139.584H323.355L331.419 132.16L323.355 124.736ZM101.507 187.584L93.4751 180.16L101.507 172.736H104.355L96.2911 180.16L104.355 187.584H101.507ZM130.688 174.208C132.736 174.208 134.4 174.859 135.68 176.16C136.981 177.44 137.632 179.307 137.632 181.76V192H135.424V182.016C135.424 180.117 134.965 178.667 134.048 177.664C133.131 176.661 131.883 176.16 130.304 176.16C128.661 176.16 127.349 176.704 126.368 177.792C125.387 178.88 124.896 180.459 124.896 182.528V192H122.688V182.016C122.688 180.117 122.229 178.667 121.312 177.664C120.395 176.661 119.136 176.16 117.536 176.16C115.893 176.16 114.581 176.704 113.6 177.792C112.619 178.88 112.128 180.459 112.128 182.528V192H109.888V174.528H112.128V177.536C112.683 176.448 113.472 175.627 114.496 175.072C115.52 174.496 116.661 174.208 117.92 174.208C119.435 174.208 120.757 174.571 121.888 175.296C123.04 176.021 123.872 177.088 124.384 178.496C124.853 177.109 125.653 176.053 126.784 175.328C127.936 174.581 129.237 174.208 130.688 174.208ZM158.415 182.368C158.415 183.136 158.394 183.723 158.351 184.128H143.855C143.919 185.451 144.239 186.581 144.815 187.52C145.391 188.459 146.148 189.173 147.087 189.664C148.026 190.133 149.05 190.368 150.159 190.368C151.61 190.368 152.826 190.016 153.807 189.312C154.81 188.608 155.471 187.659 155.791 186.464H158.159C157.732 188.171 156.815 189.568 155.407 190.656C154.02 191.723 152.271 192.256 150.159 192.256C148.516 192.256 147.044 191.893 145.743 191.168C144.442 190.421 143.418 189.376 142.671 188.032C141.946 186.667 141.583 185.077 141.583 183.264C141.583 181.451 141.946 179.861 142.671 178.496C143.396 177.131 144.41 176.085 145.711 175.36C147.012 174.635 148.495 174.272 150.159 174.272C151.823 174.272 153.274 174.635 154.511 175.36C155.77 176.085 156.73 177.067 157.391 178.304C158.074 179.52 158.415 180.875 158.415 182.368ZM156.143 182.304C156.164 181.003 155.898 179.893 155.343 178.976C154.81 178.059 154.074 177.365 153.135 176.896C152.196 176.427 151.172 176.192 150.063 176.192C148.399 176.192 146.98 176.725 145.807 177.792C144.634 178.859 143.983 180.363 143.855 182.304H156.143ZM165.425 176.416V187.264C165.425 188.331 165.628 189.067 166.033 189.472C166.438 189.877 167.153 190.08 168.177 190.08H170.225V192H167.825C166.246 192 165.073 191.637 164.305 190.912C163.537 190.165 163.153 188.949 163.153 187.264V176.416H160.721V174.528H163.153V170.144H165.425V174.528H170.225V176.416H165.425ZM172.895 183.232C172.895 181.44 173.247 179.872 173.951 178.528C174.677 177.163 175.669 176.117 176.927 175.392C178.207 174.645 179.647 174.272 181.247 174.272C182.911 174.272 184.341 174.656 185.535 175.424C186.751 176.192 187.626 177.173 188.159 178.368V174.528H190.399V192H188.159V188.128C187.605 189.323 186.719 190.315 185.503 191.104C184.309 191.872 182.879 192.256 181.215 192.256C179.637 192.256 178.207 191.883 176.927 191.136C175.669 190.389 174.677 189.333 173.951 187.968C173.247 186.603 172.895 185.024 172.895 183.232ZM188.159 183.264C188.159 181.856 187.871 180.619 187.295 179.552C186.719 178.485 185.93 177.664 184.927 177.088C183.946 176.512 182.858 176.224 181.663 176.224C180.426 176.224 179.317 176.501 178.335 177.056C177.354 177.611 176.575 178.421 175.999 179.488C175.445 180.533 175.167 181.781 175.167 183.232C175.167 184.661 175.445 185.92 175.999 187.008C176.575 188.075 177.354 188.896 178.335 189.472C179.317 190.027 180.426 190.304 181.663 190.304C182.858 190.304 183.946 190.016 184.927 189.44C185.93 188.864 186.719 188.043 187.295 186.976C187.871 185.909 188.159 184.672 188.159 183.264ZM203.27 183.264C203.27 181.451 203.633 179.872 204.358 178.528C205.084 177.163 206.086 176.117 207.366 175.392C208.646 174.645 210.108 174.272 211.75 174.272C213.905 174.272 215.676 174.805 217.062 175.872C218.47 176.939 219.377 178.389 219.782 180.224H217.382C217.084 178.965 216.433 177.984 215.43 177.28C214.449 176.555 213.222 176.192 211.75 176.192C210.577 176.192 209.521 176.459 208.582 176.992C207.644 177.525 206.897 178.325 206.342 179.392C205.809 180.437 205.542 181.728 205.542 183.264C205.542 184.8 205.809 186.101 206.342 187.168C206.897 188.235 207.644 189.035 208.582 189.568C209.521 190.101 210.577 190.368 211.75 190.368C213.222 190.368 214.449 190.016 215.43 189.312C216.433 188.587 217.084 187.584 217.382 186.304H219.782C219.377 188.096 218.47 189.536 217.062 190.624C215.654 191.712 213.884 192.256 211.75 192.256C210.108 192.256 208.646 191.893 207.366 191.168C206.086 190.421 205.084 189.376 204.358 188.032C203.633 186.667 203.27 185.077 203.27 183.264ZM232.239 174.208C233.562 174.208 234.746 174.485 235.791 175.04C236.858 175.595 237.69 176.448 238.287 177.6C238.906 178.731 239.215 180.117 239.215 181.76V192H237.007V182.016C237.007 180.117 236.527 178.667 235.567 177.664C234.629 176.661 233.338 176.16 231.695 176.16C230.01 176.16 228.666 176.693 227.663 177.76C226.661 178.827 226.159 180.395 226.159 182.464V192H223.919V168.32H226.159V177.504C226.714 176.459 227.525 175.648 228.591 175.072C229.679 174.496 230.895 174.208 232.239 174.208ZM243.145 183.232C243.145 181.44 243.497 179.872 244.201 178.528C244.927 177.163 245.919 176.117 247.177 175.392C248.457 174.645 249.897 174.272 251.497 174.272C253.161 174.272 254.591 174.656 255.785 175.424C257.001 176.192 257.876 177.173 258.409 178.368V174.528H260.649V192H258.409V188.128C257.855 189.323 256.969 190.315 255.753 191.104C254.559 191.872 253.129 192.256 251.465 192.256C249.887 192.256 248.457 191.883 247.177 191.136C245.919 190.389 244.927 189.333 244.201 187.968C243.497 186.603 243.145 185.024 243.145 183.232ZM258.409 183.264C258.409 181.856 258.121 180.619 257.545 179.552C256.969 178.485 256.18 177.664 255.177 177.088C254.196 176.512 253.108 176.224 251.913 176.224C250.676 176.224 249.567 176.501 248.585 177.056C247.604 177.611 246.825 178.421 246.249 179.488C245.695 180.533 245.417 181.781 245.417 183.232C245.417 184.661 245.695 185.92 246.249 187.008C246.825 188.075 247.604 188.896 248.585 189.472C249.567 190.027 250.676 190.304 251.913 190.304C253.108 190.304 254.196 190.016 255.177 189.44C256.18 188.864 256.969 188.043 257.545 186.976C258.121 185.909 258.409 184.672 258.409 183.264ZM268.003 177.632C268.494 176.544 269.24 175.701 270.243 175.104C271.267 174.507 272.515 174.208 273.987 174.208V176.544H273.379C271.758 176.544 270.456 176.981 269.475 177.856C268.494 178.731 268.003 180.192 268.003 182.24V192H265.763V174.528H268.003V177.632ZM283.373 192.256C281.368 192.256 279.725 191.797 278.445 190.88C277.186 189.941 276.482 188.672 276.333 187.072H278.637C278.744 188.053 279.202 188.853 280.013 189.472C280.845 190.069 281.954 190.368 283.341 190.368C284.557 190.368 285.506 190.08 286.189 189.504C286.893 188.928 287.245 188.213 287.245 187.36C287.245 186.763 287.053 186.272 286.669 185.888C286.285 185.504 285.794 185.205 285.197 184.992C284.621 184.757 283.832 184.512 282.829 184.256C281.528 183.915 280.472 183.573 279.661 183.232C278.85 182.891 278.157 182.389 277.581 181.728C277.026 181.045 276.749 180.139 276.749 179.008C276.749 178.155 277.005 177.365 277.517 176.64C278.029 175.915 278.754 175.339 279.693 174.912C280.632 174.485 281.698 174.272 282.893 174.272C284.77 174.272 286.285 174.752 287.437 175.712C288.589 176.651 289.208 177.952 289.293 179.616H287.053C286.989 178.592 286.584 177.771 285.837 177.152C285.112 176.512 284.109 176.192 282.829 176.192C281.698 176.192 280.781 176.459 280.077 176.992C279.373 177.525 279.021 178.187 279.021 178.976C279.021 179.659 279.224 180.224 279.629 180.672C280.056 181.099 280.578 181.44 281.197 181.696C281.816 181.931 282.648 182.197 283.693 182.496C284.952 182.837 285.954 183.168 286.701 183.488C287.448 183.808 288.088 184.277 288.621 184.896C289.154 185.515 289.432 186.336 289.453 187.36C289.453 188.299 289.197 189.141 288.685 189.888C288.173 190.613 287.458 191.189 286.541 191.616C285.624 192.043 284.568 192.256 283.373 192.256ZM309.477 182.368C309.477 183.136 309.456 183.723 309.413 184.128H294.917C294.981 185.451 295.301 186.581 295.877 187.52C296.453 188.459 297.211 189.173 298.149 189.664C299.088 190.133 300.112 190.368 301.221 190.368C302.672 190.368 303.888 190.016 304.869 189.312C305.872 188.608 306.533 187.659 306.853 186.464H309.221C308.795 188.171 307.877 189.568 306.469 190.656C305.083 191.723 303.333 192.256 301.221 192.256C299.579 192.256 298.107 191.893 296.805 191.168C295.504 190.421 294.48 189.376 293.733 188.032C293.008 186.667 292.645 185.077 292.645 183.264C292.645 181.451 293.008 179.861 293.733 178.496C294.459 177.131 295.472 176.085 296.773 175.36C298.075 174.635 299.557 174.272 301.221 174.272C302.885 174.272 304.336 174.635 305.573 175.36C306.832 176.085 307.792 177.067 308.453 178.304C309.136 179.52 309.477 180.875 309.477 182.368ZM307.205 182.304C307.227 181.003 306.96 179.893 306.405 178.976C305.872 178.059 305.136 177.365 304.197 176.896C303.259 176.427 302.235 176.192 301.125 176.192C299.461 176.192 298.043 176.725 296.869 177.792C295.696 178.859 295.045 180.363 294.917 182.304H307.205ZM316.488 176.416V187.264C316.488 188.331 316.69 189.067 317.096 189.472C317.501 189.877 318.216 190.08 319.24 190.08H321.288V192H318.888C317.309 192 316.136 191.637 315.368 190.912C314.6 190.165 314.216 188.949 314.216 187.264V176.416H311.784V174.528H314.216V170.144H316.488V174.528H321.288V176.416H316.488ZM341.398 175.936V177.856H325.078V175.936H341.398ZM341.398 182.464V184.352H325.078V182.464H341.398ZM347.439 166.56L347.119 172.736H345.551L345.231 166.56H347.439ZM351.279 166.56L350.991 172.736H349.423L349.071 166.56H351.279ZM357.188 169.632V183.712C357.188 185.931 357.711 187.573 358.756 188.64C359.823 189.707 361.274 190.24 363.108 190.24C364.943 190.24 366.372 189.717 367.396 188.672C368.442 187.605 368.964 185.952 368.964 183.712V169.632H371.204V183.68C371.204 186.517 370.447 188.651 368.932 190.08C367.439 191.509 365.487 192.224 363.076 192.224C360.666 192.224 358.703 191.509 357.188 190.08C355.695 188.651 354.948 186.517 354.948 183.68V169.632H357.188ZM389.289 169.632V171.488H383.081V192H380.841V171.488H374.601V169.632H389.289ZM404.922 169.632V171.488H395.066V179.84H403.386V181.696H395.066V192H392.826V169.632H404.922ZM419.455 179.2V181.088H407.007V179.2H419.455ZM429.169 180.096C427.846 179.669 426.833 178.997 426.129 178.08C425.446 177.163 425.105 176.053 425.105 174.752C425.105 173.6 425.393 172.576 425.969 171.68C426.566 170.763 427.43 170.048 428.561 169.536C429.691 169.003 431.046 168.736 432.625 168.736C434.203 168.736 435.558 169.003 436.689 169.536C437.819 170.048 438.673 170.763 439.249 171.68C439.846 172.576 440.145 173.6 440.145 174.752C440.145 176.032 439.793 177.141 439.089 178.08C438.406 179.019 437.403 179.691 436.081 180.096C437.531 180.459 438.673 181.152 439.505 182.176C440.337 183.2 440.753 184.448 440.753 185.92C440.753 187.285 440.411 188.48 439.729 189.504C439.067 190.507 438.118 191.285 436.881 191.84C435.665 192.395 434.246 192.672 432.625 192.672C431.003 192.672 429.574 192.395 428.337 191.84C427.121 191.285 426.171 190.507 425.489 189.504C424.827 188.48 424.497 187.285 424.497 185.92C424.497 184.448 424.913 183.2 425.745 182.176C426.577 181.152 427.718 180.459 429.169 180.096ZM437.969 175.008C437.969 173.6 437.489 172.512 436.529 171.744C435.569 170.976 434.267 170.592 432.625 170.592C430.982 170.592 429.681 170.976 428.721 171.744C427.761 172.491 427.281 173.579 427.281 175.008C427.281 176.331 427.771 177.387 428.753 178.176C429.734 178.965 431.025 179.36 432.625 179.36C434.225 179.36 435.515 178.965 436.497 178.176C437.478 177.387 437.969 176.331 437.969 175.008ZM432.625 181.088C430.875 181.088 429.446 181.483 428.337 182.272C427.227 183.061 426.673 184.256 426.673 185.856C426.673 187.392 427.206 188.597 428.273 189.472C429.339 190.347 430.79 190.784 432.625 190.784C434.438 190.784 435.878 190.347 436.945 189.472C438.011 188.576 438.545 187.371 438.545 185.856C438.545 184.277 437.99 183.093 436.881 182.304C435.793 181.493 434.374 181.088 432.625 181.088ZM446.001 166.56L445.681 172.736H444.113L443.793 166.56H446.001ZM449.841 166.56L449.553 172.736H447.985L447.633 166.56H449.841ZM453.543 172.736H456.391L464.423 180.16L456.391 187.584H453.543L461.607 180.16L453.543 172.736ZM64.9915 235.584L56.9595 228.16L64.9915 220.736H67.8395L59.7755 228.16L67.8395 235.584H64.9915ZM94.1725 222.208C96.2205 222.208 97.8845 222.859 99.1645 224.16C100.466 225.44 101.117 227.307 101.117 229.76V240H98.9085V230.016C98.9085 228.117 98.4498 226.667 97.5325 225.664C96.6152 224.661 95.3672 224.16 93.7885 224.16C92.1458 224.16 90.8338 224.704 89.8525 225.792C88.8712 226.88 88.3805 228.459 88.3805 230.528V240H86.1725V230.016C86.1725 228.117 85.7138 226.667 84.7965 225.664C83.8792 224.661 82.6205 224.16 81.0205 224.16C79.3778 224.16 78.0658 224.704 77.0845 225.792C76.1032 226.88 75.6125 228.459 75.6125 230.528V240H73.3725V222.528H75.6125V225.536C76.1672 224.448 76.9565 223.627 77.9805 223.072C79.0045 222.496 80.1458 222.208 81.4045 222.208C82.9192 222.208 84.2418 222.571 85.3725 223.296C86.5245 224.021 87.3565 225.088 87.8685 226.496C88.3378 225.109 89.1378 224.053 90.2685 223.328C91.4205 222.581 92.7218 222.208 94.1725 222.208ZM121.899 230.368C121.899 231.136 121.878 231.723 121.835 232.128H107.339C107.403 233.451 107.723 234.581 108.299 235.52C108.875 236.459 109.633 237.173 110.571 237.664C111.51 238.133 112.534 238.368 113.643 238.368C115.094 238.368 116.31 238.016 117.291 237.312C118.294 236.608 118.955 235.659 119.275 234.464H121.643C121.217 236.171 120.299 237.568 118.891 238.656C117.505 239.723 115.755 240.256 113.643 240.256C112.001 240.256 110.529 239.893 109.227 239.168C107.926 238.421 106.902 237.376 106.155 236.032C105.43 234.667 105.067 233.077 105.067 231.264C105.067 229.451 105.43 227.861 106.155 226.496C106.881 225.131 107.894 224.085 109.195 223.36C110.497 222.635 111.979 222.272 113.643 222.272C115.307 222.272 116.758 222.635 117.995 223.36C119.254 224.085 120.214 225.067 120.875 226.304C121.558 227.52 121.899 228.875 121.899 230.368ZM119.627 230.304C119.649 229.003 119.382 227.893 118.827 226.976C118.294 226.059 117.558 225.365 116.619 224.896C115.681 224.427 114.657 224.192 113.547 224.192C111.883 224.192 110.465 224.725 109.291 225.792C108.118 226.859 107.467 228.363 107.339 230.304H119.627ZM128.91 224.416V235.264C128.91 236.331 129.112 237.067 129.518 237.472C129.923 237.877 130.638 238.08 131.661 238.08H133.71V240H131.31C129.731 240 128.558 239.637 127.79 238.912C127.022 238.165 126.638 236.949 126.638 235.264V224.416H124.206V222.528H126.638V218.144H128.91V222.528H133.71V224.416H128.91ZM136.38 231.232C136.38 229.44 136.732 227.872 137.436 226.528C138.161 225.163 139.153 224.117 140.412 223.392C141.692 222.645 143.132 222.272 144.732 222.272C146.396 222.272 147.825 222.656 149.02 223.424C150.236 224.192 151.11 225.173 151.644 226.368V222.528H153.884V240H151.644V236.128C151.089 237.323 150.204 238.315 148.988 239.104C147.793 239.872 146.364 240.256 144.7 240.256C143.121 240.256 141.692 239.883 140.412 239.136C139.153 238.389 138.161 237.333 137.436 235.968C136.732 234.603 136.38 233.024 136.38 231.232ZM151.644 231.264C151.644 229.856 151.356 228.619 150.78 227.552C150.204 226.485 149.414 225.664 148.412 225.088C147.43 224.512 146.342 224.224 145.148 224.224C143.91 224.224 142.801 224.501 141.82 225.056C140.838 225.611 140.06 226.421 139.484 227.488C138.929 228.533 138.652 229.781 138.652 231.232C138.652 232.661 138.929 233.92 139.484 235.008C140.06 236.075 140.838 236.896 141.82 237.472C142.801 238.027 143.91 238.304 145.148 238.304C146.342 238.304 147.43 238.016 148.412 237.44C149.414 236.864 150.204 236.043 150.78 234.976C151.356 233.909 151.644 232.672 151.644 231.264ZM175.971 222.208C178.061 222.208 179.768 222.859 181.091 224.16C182.413 225.44 183.075 227.307 183.075 229.76V240H180.867V230.016C180.867 228.117 180.387 226.667 179.427 225.664C178.488 224.661 177.197 224.16 175.555 224.16C173.869 224.16 172.525 224.693 171.523 225.76C170.52 226.827 170.019 228.395 170.019 230.464V240H167.779V222.528H170.019V225.504C170.573 224.437 171.373 223.627 172.419 223.072C173.464 222.496 174.648 222.208 175.971 222.208ZM187.005 231.232C187.005 229.44 187.357 227.872 188.061 226.528C188.786 225.163 189.778 224.117 191.037 223.392C192.317 222.645 193.757 222.272 195.357 222.272C197.021 222.272 198.45 222.656 199.645 223.424C200.861 224.192 201.735 225.173 202.269 226.368V222.528H204.509V240H202.269V236.128C201.714 237.323 200.829 238.315 199.613 239.104C198.418 239.872 196.989 240.256 195.325 240.256C193.746 240.256 192.317 239.883 191.037 239.136C189.778 238.389 188.786 237.333 188.061 235.968C187.357 234.603 187.005 233.024 187.005 231.232ZM202.269 231.264C202.269 229.856 201.981 228.619 201.405 227.552C200.829 226.485 200.039 225.664 199.037 225.088C198.055 224.512 196.967 224.224 195.773 224.224C194.535 224.224 193.426 224.501 192.445 225.056C191.463 225.611 190.685 226.421 190.109 227.488C189.554 228.533 189.277 229.781 189.277 231.232C189.277 232.661 189.554 233.92 190.109 235.008C190.685 236.075 191.463 236.896 192.445 237.472C193.426 238.027 194.535 238.304 195.773 238.304C196.967 238.304 198.055 238.016 199.037 237.44C200.039 236.864 200.829 236.043 201.405 234.976C201.981 233.909 202.269 232.672 202.269 231.264ZM230.423 222.208C232.471 222.208 234.135 222.859 235.415 224.16C236.716 225.44 237.367 227.307 237.367 229.76V240H235.159V230.016C235.159 228.117 234.7 226.667 233.783 225.664C232.865 224.661 231.617 224.16 230.039 224.16C228.396 224.16 227.084 224.704 226.103 225.792C225.121 226.88 224.631 228.459 224.631 230.528V240H222.423V230.016C222.423 228.117 221.964 226.667 221.047 225.664C220.129 224.661 218.871 224.16 217.271 224.16C215.628 224.16 214.316 224.704 213.335 225.792C212.353 226.88 211.863 228.459 211.863 230.528V240H209.623V222.528H211.863V225.536C212.417 224.448 213.207 223.627 214.231 223.072C215.255 222.496 216.396 222.208 217.655 222.208C219.169 222.208 220.492 222.571 221.623 223.296C222.775 224.021 223.607 225.088 224.119 226.496C224.588 225.109 225.388 224.053 226.519 223.328C227.671 222.581 228.972 222.208 230.423 222.208ZM258.149 230.368C258.149 231.136 258.128 231.723 258.085 232.128H243.589C243.653 233.451 243.973 234.581 244.549 235.52C245.125 236.459 245.883 237.173 246.821 237.664C247.76 238.133 248.784 238.368 249.893 238.368C251.344 238.368 252.56 238.016 253.541 237.312C254.544 236.608 255.205 235.659 255.525 234.464H257.893C257.467 236.171 256.549 237.568 255.141 238.656C253.755 239.723 252.005 240.256 249.893 240.256C248.251 240.256 246.779 239.893 245.477 239.168C244.176 238.421 243.152 237.376 242.405 236.032C241.68 234.667 241.317 233.077 241.317 231.264C241.317 229.451 241.68 227.861 242.405 226.496C243.131 225.131 244.144 224.085 245.445 223.36C246.747 222.635 248.229 222.272 249.893 222.272C251.557 222.272 253.008 222.635 254.245 223.36C255.504 224.085 256.464 225.067 257.125 226.304C257.808 227.52 258.149 228.875 258.149 230.368ZM255.877 230.304C255.899 229.003 255.632 227.893 255.077 226.976C254.544 226.059 253.808 225.365 252.869 224.896C251.931 224.427 250.907 224.192 249.797 224.192C248.133 224.192 246.715 224.725 245.541 225.792C244.368 226.859 243.717 228.363 243.589 230.304H255.877ZM278.664 223.936V225.856H262.344V223.936H278.664ZM278.664 230.464V232.352H262.344V230.464H278.664ZM284.705 214.56L284.385 220.736H282.817L282.497 214.56H284.705ZM288.545 214.56L288.257 220.736H286.689L286.337 214.56H288.545ZM298.518 237.824L304.406 222.528H306.774L299.766 240H297.238L290.23 222.528H292.63L298.518 237.824ZM310.93 219.232C310.482 219.232 310.098 219.072 309.778 218.752C309.458 218.432 309.298 218.037 309.298 217.568C309.298 217.099 309.458 216.715 309.778 216.416C310.098 216.096 310.482 215.936 310.93 215.936C311.378 215.936 311.762 216.096 312.082 216.416C312.402 216.715 312.562 217.099 312.562 217.568C312.562 218.037 312.402 218.432 312.082 218.752C311.762 219.072 311.378 219.232 310.93 219.232ZM312.05 222.528V240H309.81V222.528H312.05ZM332.931 230.368C332.931 231.136 332.909 231.723 332.867 232.128H318.371C318.435 233.451 318.755 234.581 319.331 235.52C319.907 236.459 320.664 237.173 321.603 237.664C322.541 238.133 323.565 238.368 324.675 238.368C326.125 238.368 327.341 238.016 328.323 237.312C329.325 236.608 329.987 235.659 330.307 234.464H332.675C332.248 236.171 331.331 237.568 329.923 238.656C328.536 239.723 326.787 240.256 324.675 240.256C323.032 240.256 321.56 239.893 320.259 239.168C318.957 238.421 317.933 237.376 317.187 236.032C316.461 234.667 316.099 233.077 316.099 231.264C316.099 229.451 316.461 227.861 317.187 226.496C317.912 225.131 318.925 224.085 320.227 223.36C321.528 222.635 323.011 222.272 324.675 222.272C326.339 222.272 327.789 222.635 329.027 223.36C330.285 224.085 331.245 225.067 331.907 226.304C332.589 227.52 332.931 228.875 332.931 230.368ZM330.659 230.304C330.68 229.003 330.413 227.893 329.859 226.976C329.325 226.059 328.589 225.365 327.651 224.896C326.712 224.427 325.688 224.192 324.579 224.192C322.915 224.192 321.496 224.725 320.323 225.792C319.149 226.859 318.499 228.363 318.371 230.304H330.659ZM360.069 222.528L354.597 240H352.357L347.525 225.344L342.693 240H340.421L334.949 222.528H337.221L341.573 237.728L346.469 222.528H348.709L353.541 237.76L357.861 222.528H360.069ZM365.331 226.368C365.885 225.195 366.76 224.224 367.955 223.456C369.171 222.667 370.611 222.272 372.275 222.272C373.853 222.272 375.272 222.645 376.531 223.392C377.811 224.117 378.803 225.163 379.507 226.528C380.232 227.872 380.595 229.44 380.595 231.232C380.595 233.024 380.232 234.603 379.507 235.968C378.803 237.333 377.811 238.389 376.531 239.136C375.272 239.883 373.853 240.256 372.275 240.256C370.632 240.256 369.203 239.872 367.987 239.104C366.771 238.315 365.885 237.333 365.331 236.16V248.256H363.123V222.528H365.331V226.368ZM378.323 231.232C378.323 229.781 378.035 228.533 377.458 227.488C376.904 226.421 376.136 225.611 375.155 225.056C374.173 224.501 373.064 224.224 371.827 224.224C370.632 224.224 369.533 224.512 368.531 225.088C367.549 225.664 366.771 226.485 366.195 227.552C365.619 228.619 365.331 229.856 365.331 231.264C365.331 232.672 365.619 233.909 366.195 234.976C366.771 236.043 367.549 236.864 368.531 237.44C369.533 238.016 370.632 238.304 371.827 238.304C373.064 238.304 374.173 238.027 375.155 237.472C376.136 236.896 376.904 236.075 377.458 235.008C378.035 233.92 378.323 232.661 378.323 231.232ZM392.364 240.256C390.722 240.256 389.239 239.893 387.916 239.168C386.615 238.421 385.58 237.376 384.812 236.032C384.066 234.667 383.692 233.077 383.692 231.264C383.692 229.451 384.076 227.872 384.844 226.528C385.612 225.163 386.658 224.117 387.98 223.392C389.303 222.645 390.786 222.272 392.428 222.272C394.071 222.272 395.554 222.645 396.876 223.392C398.22 224.117 399.266 225.163 400.012 226.528C400.78 227.872 401.164 229.451 401.164 231.264C401.164 233.056 400.78 234.635 400.012 236C399.244 237.365 398.188 238.421 396.844 239.168C395.5 239.893 394.007 240.256 392.364 240.256ZM392.364 238.304C393.516 238.304 394.583 238.048 395.564 237.536C396.546 237.003 397.335 236.213 397.932 235.168C398.551 234.101 398.86 232.8 398.86 231.264C398.86 229.728 398.562 228.437 397.964 227.392C397.367 226.325 396.578 225.536 395.596 225.024C394.615 224.491 393.548 224.224 392.396 224.224C391.244 224.224 390.178 224.491 389.196 225.024C388.215 225.536 387.426 226.325 386.828 227.392C386.252 228.437 385.964 229.728 385.964 231.264C385.964 232.8 386.252 234.101 386.828 235.168C387.426 236.213 388.204 237.003 389.164 237.536C390.146 238.048 391.212 238.304 392.364 238.304ZM407.488 225.632C407.978 224.544 408.725 223.701 409.728 223.104C410.752 222.507 412 222.208 413.472 222.208V224.544H412.864C411.242 224.544 409.941 224.981 408.96 225.856C407.978 226.731 407.488 228.192 407.488 230.24V240H405.248V222.528H407.488V225.632ZM419.753 224.416V235.264C419.753 236.331 419.956 237.067 420.361 237.472C420.767 237.877 421.481 238.08 422.505 238.08H424.553V240H422.153C420.575 240 419.401 239.637 418.633 238.912C417.865 238.165 417.481 236.949 417.481 235.264V224.416H415.049V222.528H417.481V218.144H419.753V222.528H424.553V224.416H419.753ZM429.08 214.56L428.76 220.736H427.192L426.872 214.56H429.08ZM432.92 214.56L432.632 220.736H431.064L430.712 214.56H432.92ZM444.442 231.264C444.442 229.451 444.805 227.872 445.53 226.528C446.256 225.163 447.258 224.117 448.538 223.392C449.818 222.645 451.28 222.272 452.922 222.272C455.077 222.272 456.848 222.805 458.234 223.872C459.642 224.939 460.549 226.389 460.954 228.224H458.554C458.256 226.965 457.605 225.984 456.602 225.28C455.621 224.555 454.394 224.192 452.922 224.192C451.749 224.192 450.693 224.459 449.754 224.992C448.816 225.525 448.069 226.325 447.514 227.392C446.981 228.437 446.714 229.728 446.714 231.264C446.714 232.8 446.981 234.101 447.514 235.168C448.069 236.235 448.816 237.035 449.754 237.568C450.693 238.101 451.749 238.368 452.922 238.368C454.394 238.368 455.621 238.016 456.602 237.312C457.605 236.587 458.256 235.584 458.554 234.304H460.954C460.549 236.096 459.642 237.536 458.234 238.624C456.826 239.712 455.056 240.256 452.922 240.256C451.28 240.256 449.818 239.893 448.538 239.168C447.258 238.421 446.256 237.376 445.53 236.032C444.805 234.667 444.442 233.077 444.442 231.264ZM472.739 240.256C471.097 240.256 469.614 239.893 468.291 239.168C466.99 238.421 465.955 237.376 465.187 236.032C464.441 234.667 464.067 233.077 464.067 231.264C464.067 229.451 464.451 227.872 465.219 226.528C465.987 225.163 467.033 224.117 468.355 223.392C469.678 222.645 471.161 222.272 472.803 222.272C474.446 222.272 475.929 222.645 477.251 223.392C478.595 224.117 479.641 225.163 480.387 226.528C481.155 227.872 481.539 229.451 481.539 231.264C481.539 233.056 481.155 234.635 480.387 236C479.619 237.365 478.563 238.421 477.219 239.168C475.875 239.893 474.382 240.256 472.739 240.256ZM472.739 238.304C473.891 238.304 474.958 238.048 475.939 237.536C476.921 237.003 477.71 236.213 478.307 235.168C478.926 234.101 479.235 232.8 479.235 231.264C479.235 229.728 478.937 228.437 478.339 227.392C477.742 226.325 476.953 225.536 475.971 225.024C474.99 224.491 473.923 224.224 472.771 224.224C471.619 224.224 470.553 224.491 469.571 225.024C468.59 225.536 467.801 226.325 467.203 227.392C466.627 228.437 466.339 229.728 466.339 231.264C466.339 232.8 466.627 234.101 467.203 235.168C467.801 236.213 468.579 237.003 469.539 237.536C470.521 238.048 471.587 238.304 472.739 238.304ZM493.815 222.208C495.905 222.208 497.612 222.859 498.935 224.16C500.257 225.44 500.919 227.307 500.919 229.76V240H498.711V230.016C498.711 228.117 498.231 226.667 497.271 225.664C496.332 224.661 495.041 224.16 493.399 224.16C491.713 224.16 490.369 224.693 489.367 225.76C488.364 226.827 487.863 228.395 487.863 230.464V240H485.623V222.528H487.863V225.504C488.417 224.437 489.217 223.627 490.263 223.072C491.308 222.496 492.492 222.208 493.815 222.208ZM72.1126 272.416V283.264C72.1126 284.331 72.3153 285.067 72.7206 285.472C73.126 285.877 73.8406 286.08 74.8646 286.08H76.9126V288H74.5126C72.934 288 71.7606 287.637 70.9926 286.912C70.2246 286.165 69.8406 284.949 69.8406 283.264V272.416H67.4086V270.528H69.8406V266.144H72.1126V270.528H76.9126V272.416H72.1126ZM96.4149 278.368C96.4149 279.136 96.3935 279.723 96.3509 280.128H81.8549C81.9189 281.451 82.2389 282.581 82.8149 283.52C83.3909 284.459 84.1482 285.173 85.0869 285.664C86.0255 286.133 87.0495 286.368 88.1589 286.368C89.6095 286.368 90.8255 286.016 91.8069 285.312C92.8095 284.608 93.4709 283.659 93.7909 282.464H96.1589C95.7322 284.171 94.8149 285.568 93.4069 286.656C92.0202 287.723 90.2709 288.256 88.1589 288.256C86.5162 288.256 85.0442 287.893 83.7429 287.168C82.4415 286.421 81.4175 285.376 80.6709 284.032C79.9455 282.667 79.5829 281.077 79.5829 279.264C79.5829 277.451 79.9455 275.861 80.6709 274.496C81.3962 273.131 82.4095 272.085 83.7109 271.36C85.0122 270.635 86.4949 270.272 88.1589 270.272C89.8229 270.272 91.2735 270.635 92.5109 271.36C93.7695 272.085 94.7295 273.067 95.3909 274.304C96.0735 275.52 96.4149 276.875 96.4149 278.368ZM94.1429 278.304C94.1642 277.003 93.8975 275.893 93.3429 274.976C92.8095 274.059 92.0735 273.365 91.1349 272.896C90.1962 272.427 89.1722 272.192 88.0629 272.192C86.3989 272.192 84.9802 272.725 83.8069 273.792C82.6335 274.859 81.9829 276.363 81.8549 278.304H94.1429ZM108.705 270.208C110.796 270.208 112.502 270.859 113.825 272.16C115.148 273.44 115.809 275.307 115.809 277.76V288H113.601V278.016C113.601 276.117 113.121 274.667 112.161 273.664C111.222 272.661 109.932 272.16 108.289 272.16C106.604 272.16 105.26 272.693 104.257 273.76C103.254 274.827 102.753 276.395 102.753 278.464V288H100.513V270.528H102.753V273.504C103.308 272.437 104.108 271.627 105.153 271.072C106.198 270.496 107.382 270.208 108.705 270.208ZM123.675 272.416V283.264C123.675 284.331 123.878 285.067 124.283 285.472C124.688 285.877 125.403 286.08 126.427 286.08H128.475V288H126.075C124.496 288 123.323 287.637 122.555 286.912C121.787 286.165 121.403 284.949 121.403 283.264V272.416H118.971V270.528H121.403V266.144H123.675V270.528H128.475V272.416H123.675ZM148.585 271.936V273.856H132.265V271.936H148.585ZM148.585 278.464V280.352H132.265V278.464H148.585ZM154.626 262.56L154.306 268.736H152.738L152.418 262.56H154.626ZM158.466 262.56L158.178 268.736H156.61L156.258 262.56H158.466ZM185.272 270.528L179.8 288H177.56L172.728 273.344L167.896 288H165.624L160.152 270.528H162.424L166.776 285.728L171.672 270.528H173.912L178.744 285.76L183.064 270.528H185.272ZM189.446 267.232C188.998 267.232 188.614 267.072 188.294 266.752C187.974 266.432 187.814 266.037 187.814 265.568C187.814 265.099 187.974 264.715 188.294 264.416C188.614 264.096 188.998 263.936 189.446 263.936C189.894 263.936 190.278 264.096 190.598 264.416C190.918 264.715 191.078 265.099 191.078 265.568C191.078 266.037 190.918 266.432 190.598 266.752C190.278 267.072 189.894 267.232 189.446 267.232ZM190.566 270.528V288H188.326V270.528H190.566ZM194.614 279.232C194.614 277.44 194.977 275.872 195.702 274.528C196.427 273.163 197.419 272.117 198.678 271.392C199.958 270.645 201.398 270.272 202.998 270.272C204.534 270.272 205.921 270.645 207.158 271.392C208.395 272.139 209.302 273.109 209.878 274.304V264.32H212.118V288H209.878V284.096C209.345 285.312 208.47 286.315 207.254 287.104C206.038 287.872 204.609 288.256 202.966 288.256C201.366 288.256 199.926 287.883 198.646 287.136C197.387 286.389 196.395 285.333 195.67 283.968C194.966 282.603 194.614 281.024 194.614 279.232ZM209.878 279.264C209.878 277.856 209.59 276.619 209.014 275.552C208.438 274.485 207.649 273.664 206.646 273.088C205.665 272.512 204.577 272.224 203.382 272.224C202.145 272.224 201.035 272.501 200.054 273.056C199.073 273.611 198.294 274.421 197.718 275.488C197.163 276.533 196.886 277.781 196.886 279.232C196.886 280.661 197.163 281.92 197.718 283.008C198.294 284.075 199.073 284.896 200.054 285.472C201.035 286.027 202.145 286.304 203.382 286.304C204.577 286.304 205.665 286.016 206.646 285.44C207.649 284.864 208.438 284.043 209.014 282.976C209.59 281.909 209.878 280.672 209.878 279.264ZM220.144 272.416V283.264C220.144 284.331 220.347 285.067 220.752 285.472C221.157 285.877 221.872 286.08 222.896 286.08H224.944V288H222.544C220.965 288 219.792 287.637 219.024 286.912C218.256 286.165 217.872 284.949 217.872 283.264V272.416H215.44V270.528H217.872V266.144H220.144V270.528H224.944V272.416H220.144ZM236.958 270.208C238.281 270.208 239.465 270.485 240.51 271.04C241.577 271.595 242.409 272.448 243.006 273.6C243.625 274.731 243.934 276.117 243.934 277.76V288H241.726V278.016C241.726 276.117 241.246 274.667 240.286 273.664C239.347 272.661 238.057 272.16 236.414 272.16C234.729 272.16 233.385 272.693 232.382 273.76C231.379 274.827 230.878 276.395 230.878 278.464V288H228.638V264.32H230.878V273.504C231.433 272.459 232.243 271.648 233.31 271.072C234.398 270.496 235.614 270.208 236.958 270.208ZM265.304 271.936V273.856H248.984V271.936H265.304ZM265.304 278.464V280.352H248.984V278.464H265.304ZM269.489 279.232C269.489 277.44 269.852 275.872 270.577 274.528C271.302 273.163 272.294 272.117 273.553 271.392C274.833 270.645 276.273 270.272 277.873 270.272C279.409 270.272 280.796 270.645 282.033 271.392C283.27 272.139 284.177 273.109 284.753 274.304V264.32H286.993V288H284.753V284.096C284.22 285.312 283.345 286.315 282.129 287.104C280.913 287.872 279.484 288.256 277.841 288.256C276.241 288.256 274.801 287.883 273.521 287.136C272.262 286.389 271.27 285.333 270.545 283.968C269.841 282.603 269.489 281.024 269.489 279.232ZM284.753 279.264C284.753 277.856 284.465 276.619 283.889 275.552C283.313 274.485 282.524 273.664 281.521 273.088C280.54 272.512 279.452 272.224 278.257 272.224C277.02 272.224 275.91 272.501 274.929 273.056C273.948 273.611 273.169 274.421 272.593 275.488C272.038 276.533 271.761 277.781 271.761 279.232C271.761 280.661 272.038 281.92 272.593 283.008C273.169 284.075 273.948 284.896 274.929 285.472C275.91 286.027 277.02 286.304 278.257 286.304C279.452 286.304 280.54 286.016 281.521 285.44C282.524 284.864 283.313 284.043 283.889 282.976C284.465 281.909 284.753 280.672 284.753 279.264ZM307.915 278.368C307.915 279.136 307.894 279.723 307.851 280.128H293.355C293.419 281.451 293.739 282.581 294.315 283.52C294.891 284.459 295.648 285.173 296.587 285.664C297.526 286.133 298.55 286.368 299.659 286.368C301.11 286.368 302.326 286.016 303.307 285.312C304.31 284.608 304.971 283.659 305.291 282.464H307.659C307.232 284.171 306.315 285.568 304.907 286.656C303.52 287.723 301.771 288.256 299.659 288.256C298.016 288.256 296.544 287.893 295.243 287.168C293.942 286.421 292.918 285.376 292.171 284.032C291.446 282.667 291.083 281.077 291.083 279.264C291.083 277.451 291.446 275.861 292.171 274.496C292.896 273.131 293.91 272.085 295.211 271.36C296.512 270.635 297.995 270.272 299.659 270.272C301.323 270.272 302.774 270.635 304.011 271.36C305.27 272.085 306.23 273.067 306.891 274.304C307.574 275.52 307.915 276.875 307.915 278.368ZM305.643 278.304C305.664 277.003 305.398 275.893 304.843 274.976C304.31 274.059 303.574 273.365 302.635 272.896C301.696 272.427 300.672 272.192 299.563 272.192C297.899 272.192 296.48 272.725 295.307 273.792C294.134 274.859 293.483 276.363 293.355 278.304H305.643ZM318.221 285.824L324.109 270.528H326.477L319.469 288H316.941L309.933 270.528H312.333L318.221 285.824ZM330.633 267.232C330.185 267.232 329.801 267.072 329.481 266.752C329.161 266.432 329.001 266.037 329.001 265.568C329.001 265.099 329.161 264.715 329.481 264.416C329.801 264.096 330.185 263.936 330.633 263.936C331.081 263.936 331.465 264.096 331.785 264.416C332.105 264.715 332.265 265.099 332.265 265.568C332.265 266.037 332.105 266.432 331.785 266.752C331.465 267.072 331.081 267.232 330.633 267.232ZM331.753 270.528V288H329.513V270.528H331.753ZM335.802 279.264C335.802 277.451 336.164 275.872 336.89 274.528C337.615 273.163 338.618 272.117 339.898 271.392C341.178 270.645 342.639 270.272 344.282 270.272C346.436 270.272 348.207 270.805 349.594 271.872C351.002 272.939 351.908 274.389 352.314 276.224H349.914C349.615 274.965 348.964 273.984 347.962 273.28C346.98 272.555 345.754 272.192 344.282 272.192C343.108 272.192 342.052 272.459 341.114 272.992C340.175 273.525 339.428 274.325 338.874 275.392C338.34 276.437 338.074 277.728 338.074 279.264C338.074 280.8 338.34 282.101 338.874 283.168C339.428 284.235 340.175 285.035 341.114 285.568C342.052 286.101 343.108 286.368 344.282 286.368C345.754 286.368 346.98 286.016 347.962 285.312C348.964 284.587 349.615 283.584 349.914 282.304H352.314C351.908 284.096 351.002 285.536 349.594 286.624C348.186 287.712 346.415 288.256 344.282 288.256C342.639 288.256 341.178 287.893 339.898 287.168C338.618 286.421 337.615 285.376 336.89 284.032C336.164 282.667 335.802 281.077 335.802 279.264ZM372.259 278.368C372.259 279.136 372.237 279.723 372.195 280.128H357.699C357.763 281.451 358.083 282.581 358.659 283.52C359.235 284.459 359.992 285.173 360.931 285.664C361.869 286.133 362.893 286.368 364.003 286.368C365.453 286.368 366.669 286.016 367.651 285.312C368.653 284.608 369.315 283.659 369.635 282.464H372.003C371.576 284.171 370.659 285.568 369.251 286.656C367.864 287.723 366.115 288.256 364.003 288.256C362.36 288.256 360.888 287.893 359.587 287.168C358.285 286.421 357.261 285.376 356.515 284.032C355.789 282.667 355.427 281.077 355.427 279.264C355.427 277.451 355.789 275.861 356.515 274.496C357.24 273.131 358.253 272.085 359.555 271.36C360.856 270.635 362.339 270.272 364.003 270.272C365.667 270.272 367.117 270.635 368.355 271.36C369.613 272.085 370.573 273.067 371.235 274.304C371.917 275.52 372.259 276.875 372.259 278.368ZM369.987 278.304C370.008 277.003 369.741 275.893 369.187 274.976C368.653 274.059 367.917 273.365 366.979 272.896C366.04 272.427 365.016 272.192 363.907 272.192C362.243 272.192 360.824 272.725 359.651 273.792C358.477 274.859 357.827 276.363 357.699 278.304H369.987ZM387.205 275.2V277.088H374.757V275.2H387.205ZM415.991 270.528L410.519 288H408.279L403.447 273.344L398.615 288H396.343L390.871 270.528H393.143L397.495 285.728L402.391 270.528H404.631L409.463 285.76L413.783 270.528H415.991ZM420.164 267.232C419.716 267.232 419.332 267.072 419.012 266.752C418.692 266.432 418.532 266.037 418.532 265.568C418.532 265.099 418.692 264.715 419.012 264.416C419.332 264.096 419.716 263.936 420.164 263.936C420.612 263.936 420.996 264.096 421.316 264.416C421.636 264.715 421.796 265.099 421.796 265.568C421.796 266.037 421.636 266.432 421.316 266.752C420.996 267.072 420.612 267.232 420.164 267.232ZM421.284 270.528V288H419.044V270.528H421.284ZM425.333 279.232C425.333 277.44 425.696 275.872 426.421 274.528C427.146 273.163 428.138 272.117 429.397 271.392C430.677 270.645 432.117 270.272 433.717 270.272C435.253 270.272 436.64 270.645 437.877 271.392C439.114 272.139 440.021 273.109 440.597 274.304V264.32H442.837V288H440.597V284.096C440.064 285.312 439.189 286.315 437.973 287.104C436.757 287.872 435.328 288.256 433.685 288.256C432.085 288.256 430.645 287.883 429.365 287.136C428.106 286.389 427.114 285.333 426.389 283.968C425.685 282.603 425.333 281.024 425.333 279.232ZM440.597 279.264C440.597 277.856 440.309 276.619 439.733 275.552C439.157 274.485 438.368 273.664 437.365 273.088C436.384 272.512 435.296 272.224 434.101 272.224C432.864 272.224 431.754 272.501 430.773 273.056C429.792 273.611 429.013 274.421 428.437 275.488C427.882 276.533 427.605 277.781 427.605 279.232C427.605 280.661 427.882 281.92 428.437 283.008C429.013 284.075 429.792 284.896 430.773 285.472C431.754 286.027 432.864 286.304 434.101 286.304C435.296 286.304 436.384 286.016 437.365 285.44C438.368 284.864 439.157 284.043 439.733 282.976C440.309 281.909 440.597 280.672 440.597 279.264ZM450.863 272.416V283.264C450.863 284.331 451.065 285.067 451.471 285.472C451.876 285.877 452.591 286.08 453.615 286.08H455.663V288H453.263C451.684 288 450.511 287.637 449.743 286.912C448.975 286.165 448.591 284.949 448.591 283.264V272.416H446.159V270.528H448.591V266.144H450.863V270.528H455.663V272.416H450.863ZM467.677 270.208C469 270.208 470.184 270.485 471.229 271.04C472.296 271.595 473.128 272.448 473.725 273.6C474.344 274.731 474.653 276.117 474.653 277.76V288H472.445V278.016C472.445 276.117 471.965 274.667 471.005 273.664C470.066 272.661 468.776 272.16 467.133 272.16C465.448 272.16 464.104 272.693 463.101 273.76C462.098 274.827 461.597 276.395 461.597 278.464V288H459.357V264.32H461.597V273.504C462.152 272.459 462.962 271.648 464.029 271.072C465.117 270.496 466.333 270.208 467.677 270.208ZM481.655 284.288L478.327 292.672H476.791L479.159 284.288H481.655ZM146.024 315.232C145.576 315.232 145.192 315.072 144.872 314.752C144.552 314.432 144.392 314.037 144.392 313.568C144.392 313.099 144.552 312.715 144.872 312.416C145.192 312.096 145.576 311.936 146.024 311.936C146.472 311.936 146.856 312.096 147.176 312.416C147.496 312.715 147.656 313.099 147.656 313.568C147.656 314.037 147.496 314.432 147.176 314.752C146.856 315.072 146.472 315.232 146.024 315.232ZM147.144 318.528V336H144.904V318.528H147.144ZM160.408 318.208C162.499 318.208 164.206 318.859 165.528 320.16C166.851 321.44 167.512 323.307 167.512 325.76V336H165.304V326.016C165.304 324.117 164.824 322.667 163.864 321.664C162.926 320.661 161.635 320.16 159.992 320.16C158.307 320.16 156.963 320.693 155.96 321.76C154.958 322.827 154.456 324.395 154.456 326.464V336H152.216V318.528H154.456V321.504C155.011 320.437 155.811 319.627 156.856 319.072C157.902 318.496 159.086 318.208 160.408 318.208ZM173.586 315.232C173.138 315.232 172.754 315.072 172.434 314.752C172.114 314.432 171.954 314.037 171.954 313.568C171.954 313.099 172.114 312.715 172.434 312.416C172.754 312.096 173.138 311.936 173.586 311.936C174.034 311.936 174.418 312.096 174.738 312.416C175.058 312.715 175.218 313.099 175.218 313.568C175.218 314.037 175.058 314.432 174.738 314.752C174.418 315.072 174.034 315.232 173.586 315.232ZM174.706 318.528V336H172.466V318.528H174.706ZM182.691 320.416V331.264C182.691 332.331 182.893 333.067 183.299 333.472C183.704 333.877 184.419 334.08 185.443 334.08H187.491V336H185.091C183.512 336 182.339 335.637 181.571 334.912C180.803 334.165 180.419 332.949 180.419 331.264V320.416H177.987V318.528H180.419V314.144H182.691V318.528H187.491V320.416H182.691ZM192.305 315.232C191.857 315.232 191.473 315.072 191.153 314.752C190.833 314.432 190.673 314.037 190.673 313.568C190.673 313.099 190.833 312.715 191.153 312.416C191.473 312.096 191.857 311.936 192.305 311.936C192.753 311.936 193.137 312.096 193.457 312.416C193.777 312.715 193.937 313.099 193.937 313.568C193.937 314.037 193.777 314.432 193.457 314.752C193.137 315.072 192.753 315.232 192.305 315.232ZM193.425 318.528V336H191.185V318.528H193.425ZM197.474 327.232C197.474 325.44 197.826 323.872 198.53 322.528C199.255 321.163 200.247 320.117 201.506 319.392C202.786 318.645 204.226 318.272 205.826 318.272C207.49 318.272 208.919 318.656 210.114 319.424C211.33 320.192 212.204 321.173 212.738 322.368V318.528H214.978V336H212.738V332.128C212.183 333.323 211.298 334.315 210.082 335.104C208.887 335.872 207.458 336.256 205.794 336.256C204.215 336.256 202.786 335.883 201.506 335.136C200.247 334.389 199.255 333.333 198.53 331.968C197.826 330.603 197.474 329.024 197.474 327.232ZM212.738 327.264C212.738 325.856 212.45 324.619 211.874 323.552C211.298 322.485 210.508 321.664 209.506 321.088C208.524 320.512 207.436 320.224 206.242 320.224C205.004 320.224 203.895 320.501 202.914 321.056C201.932 321.611 201.154 322.421 200.578 323.488C200.023 324.533 199.746 325.781 199.746 327.232C199.746 328.661 200.023 329.92 200.578 331.008C201.154 332.075 201.932 332.896 202.914 333.472C203.895 334.027 205.004 334.304 206.242 334.304C207.436 334.304 208.524 334.016 209.506 333.44C210.508 332.864 211.298 332.043 211.874 330.976C212.45 329.909 212.738 328.672 212.738 327.264ZM222.331 312.32V336H220.091V312.32H222.331ZM238.252 323.2V325.088H225.804V323.2H238.252ZM250.014 336.256C248.008 336.256 246.366 335.797 245.086 334.88C243.827 333.941 243.123 332.672 242.974 331.072H245.278C245.384 332.053 245.843 332.853 246.654 333.472C247.486 334.069 248.595 334.368 249.982 334.368C251.198 334.368 252.147 334.08 252.83 333.504C253.534 332.928 253.886 332.213 253.886 331.36C253.886 330.763 253.694 330.272 253.31 329.888C252.926 329.504 252.435 329.205 251.838 328.992C251.262 328.757 250.472 328.512 249.47 328.256C248.168 327.915 247.112 327.573 246.302 327.232C245.491 326.891 244.798 326.389 244.222 325.728C243.667 325.045 243.39 324.139 243.39 323.008C243.39 322.155 243.646 321.365 244.158 320.64C244.67 319.915 245.395 319.339 246.334 318.912C247.272 318.485 248.339 318.272 249.534 318.272C251.411 318.272 252.926 318.752 254.078 319.712C255.23 320.651 255.848 321.952 255.934 323.616H253.694C253.63 322.592 253.224 321.771 252.478 321.152C251.752 320.512 250.75 320.192 249.47 320.192C248.339 320.192 247.422 320.459 246.718 320.992C246.014 321.525 245.661 322.187 245.661 322.976C245.661 323.659 245.864 324.224 246.27 324.672C246.696 325.099 247.219 325.44 247.838 325.696C248.456 325.931 249.288 326.197 250.334 326.496C251.592 326.837 252.595 327.168 253.342 327.488C254.088 327.808 254.728 328.277 255.262 328.896C255.795 329.515 256.072 330.336 256.094 331.36C256.094 332.299 255.838 333.141 255.326 333.888C254.814 334.613 254.099 335.189 253.182 335.616C252.264 336.043 251.208 336.256 250.014 336.256ZM259.286 327.264C259.286 325.451 259.649 323.872 260.374 322.528C261.099 321.163 262.102 320.117 263.382 319.392C264.662 318.645 266.123 318.272 267.766 318.272C269.921 318.272 271.691 318.805 273.078 319.872C274.486 320.939 275.393 322.389 275.798 324.224H273.398C273.099 322.965 272.449 321.984 271.446 321.28C270.465 320.555 269.238 320.192 267.766 320.192C266.593 320.192 265.537 320.459 264.598 320.992C263.659 321.525 262.913 322.325 262.358 323.392C261.825 324.437 261.558 325.728 261.558 327.264C261.558 328.8 261.825 330.101 262.358 331.168C262.913 332.235 263.659 333.035 264.598 333.568C265.537 334.101 266.593 334.368 267.766 334.368C269.238 334.368 270.465 334.016 271.446 333.312C272.449 332.587 273.099 331.584 273.398 330.304H275.798C275.393 332.096 274.486 333.536 273.078 334.624C271.67 335.712 269.899 336.256 267.766 336.256C266.123 336.256 264.662 335.893 263.382 335.168C262.102 334.421 261.099 333.376 260.374 332.032C259.649 330.667 259.286 329.077 259.286 327.264ZM278.911 327.232C278.911 325.44 279.263 323.872 279.967 322.528C280.692 321.163 281.684 320.117 282.943 319.392C284.223 318.645 285.663 318.272 287.263 318.272C288.927 318.272 290.356 318.656 291.551 319.424C292.767 320.192 293.642 321.173 294.175 322.368V318.528H296.415V336H294.175V332.128C293.62 333.323 292.735 334.315 291.519 335.104C290.324 335.872 288.895 336.256 287.231 336.256C285.652 336.256 284.223 335.883 282.943 335.136C281.684 334.389 280.692 333.333 279.967 331.968C279.263 330.603 278.911 329.024 278.911 327.232ZM294.175 327.264C294.175 325.856 293.887 324.619 293.311 323.552C292.735 322.485 291.946 321.664 290.943 321.088C289.962 320.512 288.874 320.224 287.679 320.224C286.442 320.224 285.332 320.501 284.351 321.056C283.37 321.611 282.591 322.421 282.015 323.488C281.46 324.533 281.183 325.781 281.183 327.232C281.183 328.661 281.46 329.92 282.015 331.008C282.591 332.075 283.37 332.896 284.351 333.472C285.332 334.027 286.442 334.304 287.679 334.304C288.874 334.304 289.962 334.016 290.943 333.44C291.946 332.864 292.735 332.043 293.311 330.976C293.887 329.909 294.175 328.672 294.175 327.264ZM303.769 312.32V336H301.529V312.32H303.769ZM324.649 326.368C324.649 327.136 324.628 327.723 324.585 328.128H310.089C310.153 329.451 310.473 330.581 311.049 331.52C311.625 332.459 312.383 333.173 313.321 333.664C314.26 334.133 315.284 334.368 316.393 334.368C317.844 334.368 319.06 334.016 320.041 333.312C321.044 332.608 321.705 331.659 322.025 330.464H324.393C323.967 332.171 323.049 333.568 321.641 334.656C320.255 335.723 318.505 336.256 316.393 336.256C314.751 336.256 313.279 335.893 311.977 335.168C310.676 334.421 309.652 333.376 308.905 332.032C308.18 330.667 307.817 329.077 307.817 327.264C307.817 325.451 308.18 323.861 308.905 322.496C309.631 321.131 310.644 320.085 311.945 319.36C313.247 318.635 314.729 318.272 316.393 318.272C318.057 318.272 319.508 318.635 320.745 319.36C322.004 320.085 322.964 321.067 323.625 322.304C324.308 323.52 324.649 324.875 324.649 326.368ZM322.377 326.304C322.399 325.003 322.132 323.893 321.577 322.976C321.044 322.059 320.308 321.365 319.369 320.896C318.431 320.427 317.407 320.192 316.297 320.192C314.633 320.192 313.215 320.725 312.041 321.792C310.868 322.859 310.217 324.363 310.089 326.304H322.377ZM345.164 319.936V321.856H328.844V319.936H345.164ZM345.164 326.464V328.352H328.844V326.464H345.164ZM348.805 315.072V313.056H354.245V336H351.973V315.072H348.805ZM360.1 336.16C359.631 336.16 359.236 336 358.916 335.68C358.618 335.36 358.468 334.965 358.468 334.496C358.468 334.027 358.618 333.643 358.916 333.344C359.236 333.024 359.631 332.864 360.1 332.864C360.548 332.864 360.922 333.024 361.22 333.344C361.54 333.643 361.7 334.027 361.7 334.496C361.7 334.965 361.54 335.36 361.22 335.68C360.922 336 360.548 336.16 360.1 336.16ZM365.049 324.32C365.049 320.651 365.614 317.803 366.745 315.776C367.875 313.749 369.902 312.736 372.825 312.736C375.747 312.736 377.774 313.749 378.905 315.776C380.035 317.803 380.601 320.651 380.601 324.32C380.601 328.053 380.035 330.944 378.905 332.992C377.774 335.04 375.747 336.064 372.825 336.064C369.881 336.064 367.843 335.04 366.713 332.992C365.603 330.944 365.049 328.053 365.049 324.32ZM378.393 324.32C378.393 322.336 378.254 320.661 377.977 319.296C377.699 317.931 377.155 316.832 376.345 316C375.534 315.168 374.361 314.752 372.825 314.752C371.289 314.752 370.115 315.168 369.305 316C368.494 316.832 367.95 317.931 367.673 319.296C367.395 320.661 367.257 322.336 367.257 324.32C367.257 326.368 367.395 328.085 367.673 329.472C367.95 330.837 368.494 331.936 369.305 332.768C370.115 333.6 371.289 334.016 372.825 334.016C374.361 334.016 375.534 333.6 376.345 332.768C377.155 331.936 377.699 330.837 377.977 329.472C378.254 328.085 378.393 326.368 378.393 324.32ZM386.08 310.56L385.76 316.736H384.192L383.872 310.56H386.08ZM389.92 310.56L389.632 316.736H388.064L387.712 310.56H389.92ZM393.621 316.736H396.469L404.501 324.16L396.469 331.584H393.621L401.685 324.16L393.621 316.736Z" fill="#06865F" fill-opacity="0.38"/>
</svg>
