<svg width="28" height="33" viewBox="0 0 28 33" fill="none" xmlns="http://www.w3.org/2000/svg">
<path d="M7.44063 27.5195V1.64551H26.0714V27.5195C26.0714 28.6263 25.7827 29.6878 25.2689 30.4704C24.7551 31.2531 24.0582 31.6928 23.3315 31.6928H4.70081M18.3999 8.32267H21.6877V14.9998H18.3999V8.32267ZM10.7284 21.677H22.7836H10.7284ZM10.7284 14.9998H15.1121H10.7284ZM10.7284 8.32267H15.1121H10.7284ZM7.44063 27.5195C7.44063 28.6263 7.15197 29.6878 6.63815 30.4704C6.12434 31.2531 5.42746 31.6928 4.70081 31.6928C3.97417 31.6928 3.27729 31.2531 2.76347 30.4704C2.24966 29.6878 1.961 28.6263 1.961 27.5195V8.32267H7.46802L7.44063 27.5195Z" stroke="#333F46" stroke-width="2"/>
</svg>
