<svg width="60" height="50" viewBox="0 0 60 50" fill="none" xmlns="http://www.w3.org/2000/svg">
<path d="M57.8571 42.8571H2.14286C1.57454 42.8571 1.02949 43.0453 0.627628 43.3802C0.225765 43.7151 0 44.1693 0 44.6429L0 48.2143C0 48.6879 0.225765 49.1421 0.627628 49.477C1.02949 49.8119 1.57454 50 2.14286 50H57.8571C58.4255 50 58.9705 49.8119 59.3724 49.477C59.7742 49.1421 60 48.6879 60 48.2143V44.6429C60 44.1693 59.7742 43.7151 59.3724 43.3802C58.9705 43.0453 58.4255 42.8571 57.8571 42.8571ZM57.8571 28.5714H2.14286C1.57454 28.5714 1.02949 28.7596 0.627628 29.0945C0.225765 29.4293 0 29.8835 0 30.3571L0 33.9286C0 34.4022 0.225765 34.8564 0.627628 35.1913C1.02949 35.5261 1.57454 35.7143 2.14286 35.7143H57.8571C58.4255 35.7143 58.9705 35.5261 59.3724 35.1913C59.7742 34.8564 60 34.4022 60 33.9286V30.3571C60 29.8835 59.7742 29.4293 59.3724 29.0945C58.9705 28.7596 58.4255 28.5714 57.8571 28.5714ZM57.8571 14.2857H2.14286C1.57454 14.2857 1.02949 14.4739 0.627628 14.8087C0.225765 15.1436 0 15.5978 0 16.0714L0 19.6429C0 20.1165 0.225765 20.5707 0.627628 20.9055C1.02949 21.2404 1.57454 21.4286 2.14286 21.4286H57.8571C58.4255 21.4286 58.9705 21.2404 59.3724 20.9055C59.7742 20.5707 60 20.1165 60 19.6429V16.0714C60 15.5978 59.7742 15.1436 59.3724 14.8087C58.9705 14.4739 58.4255 14.2857 57.8571 14.2857ZM57.8571 0H2.14286C1.57454 0 1.02949 0.188137 0.627628 0.523024C0.225765 0.85791 0 1.31211 0 1.78571L0 5.35714C0 5.83074 0.225765 6.28495 0.627628 6.61983C1.02949 6.95472 1.57454 7.14286 2.14286 7.14286H57.8571C58.4255 7.14286 58.9705 6.95472 59.3724 6.61983C59.7742 6.28495 60 5.83074 60 5.35714V1.78571C60 1.31211 59.7742 0.85791 59.3724 0.523024C58.9705 0.188137 58.4255 0 57.8571 0V0Z" fill="white"/>
</svg>
