<svg width="43" height="31" viewBox="0 0 43 31" fill="none" xmlns="http://www.w3.org/2000/svg">
<path d="M1.53571 13.5977H41.4643C41.8716 13.5977 42.2622 13.4848 42.5502 13.2838C42.8382 13.0829 43 12.8104 43 12.5262V10.3834C43 10.0992 42.8382 9.82668 42.5502 9.62575C42.2622 9.42482 41.8716 9.31194 41.4643 9.31194H1.53571C1.12842 9.31194 0.737803 9.42482 0.4498 9.62575C0.161798 9.82668 0 10.0992 0 10.3834L0 12.5262C0 12.8104 0.161798 13.0829 0.4498 13.2838C0.737803 13.4848 1.12842 13.5977 1.53571 13.5977ZM41.4643 26.4548H1.53571C1.12842 26.4548 0.737803 26.5677 0.4498 26.7686C0.161798 26.9695 0 27.2421 0 27.5262L0 29.6691C0 29.9532 0.161798 30.2258 0.4498 30.4267C0.737803 30.6276 1.12842 30.7405 1.53571 30.7405H41.4643C41.8716 30.7405 42.2622 30.6276 42.5502 30.4267C42.8382 30.2258 43 29.9532 43 29.6691V27.5262C43 27.2421 42.8382 26.9695 42.5502 26.7686C42.2622 26.5677 41.8716 26.4548 41.4643 26.4548ZM41.7686 0.740509H16.5886C16.4268 0.740421 16.2667 0.762584 16.1172 0.805729C15.9677 0.848874 15.8319 0.912155 15.7175 0.991953C15.6032 1.07175 15.5125 1.1665 15.4506 1.27077C15.3888 1.37505 15.357 1.48681 15.3571 1.59966V4.16707C15.357 4.27992 15.3888 4.39168 15.4506 4.49596C15.5125 4.60024 15.6032 4.69498 15.7175 4.77478C15.8319 4.85458 15.9677 4.91786 16.1172 4.961C16.2667 5.00415 16.4268 5.02631 16.5886 5.02622H41.7686C41.9303 5.02631 42.0905 5.00415 42.24 4.961C42.3894 4.91786 42.5252 4.85458 42.6396 4.77478C42.754 4.69498 42.8447 4.60024 42.9065 4.49596C42.9684 4.39168 43.0001 4.27992 43 4.16707V1.59966C43.0001 1.48681 42.9684 1.37505 42.9065 1.27077C42.8447 1.1665 42.754 1.07175 42.6396 0.991953C42.5252 0.912155 42.3894 0.848874 42.24 0.805729C42.0905 0.762584 41.9303 0.740421 41.7686 0.740509ZM41.7686 17.8834H16.5886C16.4268 17.8833 16.2667 17.9054 16.1172 17.9486C15.9677 17.9917 15.8319 18.055 15.7175 18.1348C15.6032 18.2146 15.5125 18.3094 15.4506 18.4136C15.3888 18.5179 15.357 18.6297 15.3571 18.7425V21.3099C15.357 21.4228 15.3888 21.5345 15.4506 21.6388C15.5125 21.7431 15.6032 21.8378 15.7175 21.9176C15.8319 21.9974 15.9677 22.0607 16.1172 22.1039C16.2667 22.147 16.4268 22.1692 16.5886 22.1691H41.7686C41.9303 22.1692 42.0905 22.147 42.24 22.1039C42.3894 22.0607 42.5252 21.9974 42.6396 21.9176C42.754 21.8378 42.8447 21.7431 42.9065 21.6388C42.9684 21.5345 43.0001 21.4228 43 21.3099V18.7425C43.0001 18.6297 42.9684 18.5179 42.9065 18.4136C42.8447 18.3094 42.754 18.2146 42.6396 18.1348C42.5252 18.055 42.3894 17.9917 42.24 17.9486C42.0905 17.9054 41.9303 17.8833 41.7686 17.8834Z" fill="#F5F5F5"/>
</svg>
