<svg width="421" height="80" viewBox="0 0 421 80" fill="none" xmlns="http://www.w3.org/2000/svg">
<g filter="url(#filter0_d_51_3)">
<path d="M6.45455 45.6364V42L35.7273 27.0909V32.9091L13.2727 43.7273L13.4545 43.3636V44.2727L13.2727 43.9091L35.7273 54.7273V60.5455L6.45455 45.6364ZM63.5511 13.2727L48.5511 69H43.642L58.642 13.2727H63.5511ZM100.727 45.6364L71.4545 60.5455V54.7273L93.9091 43.9091L93.7273 44.2727V43.3636L93.9091 43.7273L71.4545 32.9091V27.0909L100.727 42V45.6364Z" fill="#11EA0D"/>
</g>
<path d="M136.142 42.8598C137.358 43.0518 138.462 43.5478 139.454 44.3478C140.478 45.1478 141.278 46.1398 141.854 47.3238C142.462 48.5078 142.766 49.7718 142.766 51.1158C142.766 52.8118 142.334 54.3478 141.47 55.7238C140.606 57.0678 139.342 58.1398 137.678 58.9398C136.046 59.7078 134.11 60.0918 131.87 60.0918H119.39V26.6358H131.39C133.662 26.6358 135.598 27.0198 137.198 27.7878C138.798 28.5238 139.998 29.5318 140.798 30.8118C141.598 32.0918 141.998 33.5318 141.998 35.1318C141.998 37.1158 141.454 38.7638 140.366 40.0758C139.31 41.3558 137.902 42.2838 136.142 42.8598ZM123.758 41.0838H131.102C133.15 41.0838 134.734 40.6038 135.854 39.6438C136.974 38.6838 137.534 37.3558 137.534 35.6598C137.534 33.9638 136.974 32.6358 135.854 31.6758C134.734 30.7158 133.118 30.2358 131.006 30.2358H123.758V41.0838ZM131.486 56.4918C133.662 56.4918 135.358 55.9798 136.574 54.9558C137.79 53.9318 138.398 52.5078 138.398 50.6838C138.398 48.8278 137.758 47.3718 136.478 46.3158C135.198 45.2278 133.486 44.6838 131.342 44.6838H123.758V56.4918H131.486ZM172.155 33.7878V60.0918H167.787V56.2038C166.955 57.5478 165.787 58.6038 164.283 59.3718C162.811 60.1078 161.179 60.4758 159.387 60.4758C157.339 60.4758 155.499 60.0598 153.867 59.2278C152.235 58.3638 150.939 57.0838 149.979 55.3878C149.051 53.6918 148.587 51.6278 148.587 49.1958V33.7878H152.907V48.6198C152.907 51.2118 153.563 53.2118 154.875 54.6198C156.187 55.9958 157.979 56.6838 160.251 56.6838C162.587 56.6838 164.427 55.9638 165.771 54.5238C167.115 53.0838 167.787 50.9878 167.787 48.2358V33.7878H172.155ZM194.218 60.0918L183.898 48.4758V60.0918H179.53V24.5718H183.898V45.4518L194.026 33.7878H200.122L187.738 46.8918L200.17 60.0918H194.218ZM202.601 46.8438C202.601 44.1558 203.145 41.8038 204.233 39.7878C205.321 37.7398 206.809 36.1558 208.697 35.0358C210.617 33.9158 212.745 33.3558 215.081 33.3558C217.385 33.3558 219.385 33.8518 221.081 34.8438C222.777 35.8358 224.041 37.0838 224.873 38.5878V33.7878H229.289V60.0918H224.873V55.1958C224.009 56.7318 222.713 58.0118 220.985 59.0358C219.289 60.0278 217.305 60.5238 215.033 60.5238C212.697 60.5238 210.585 59.9478 208.697 58.7958C206.809 57.6438 205.321 56.0278 204.233 53.9478C203.145 51.8678 202.601 49.4998 202.601 46.8438ZM224.873 46.8918C224.873 44.9078 224.473 43.1798 223.673 41.7078C222.873 40.2358 221.785 39.1158 220.409 38.3478C219.065 37.5478 217.577 37.1478 215.945 37.1478C214.313 37.1478 212.825 37.5318 211.481 38.2998C210.137 39.0678 209.065 40.1878 208.265 41.6598C207.465 43.1318 207.065 44.8598 207.065 46.8438C207.065 48.8598 207.465 50.6198 208.265 52.1238C209.065 53.5958 210.137 54.7318 211.481 55.5318C212.825 56.2998 214.313 56.6838 215.945 56.6838C217.577 56.6838 219.065 56.2998 220.409 55.5318C221.785 54.7318 222.873 53.5958 223.673 52.1238C224.473 50.6198 224.873 48.8758 224.873 46.8918ZM254.911 40.6518V44.3478H235.759V40.6518H254.911ZM273.524 26.6358C277.172 26.6358 280.324 27.3238 282.98 28.6998C285.668 30.0438 287.716 31.9798 289.124 34.5078C290.564 37.0358 291.284 40.0118 291.284 43.4358C291.284 46.8598 290.564 49.8358 289.124 52.3638C287.716 54.8598 285.668 56.7798 282.98 58.1238C280.324 59.4358 277.172 60.0918 273.524 60.0918H263.108V26.6358H273.524ZM273.524 56.4918C277.844 56.4918 281.14 55.3558 283.412 53.0838C285.684 50.7798 286.82 47.5638 286.82 43.4358C286.82 39.2758 285.668 36.0278 283.364 33.6918C281.092 31.3558 277.812 30.1878 273.524 30.1878H267.476V56.4918H273.524ZM321.046 45.9318C321.046 46.7638 320.998 47.6438 320.902 48.5718H299.878C300.038 51.1638 300.918 53.1958 302.518 54.6678C304.15 56.1078 306.118 56.8278 308.422 56.8278C310.31 56.8278 311.878 56.3958 313.126 55.5318C314.406 54.6358 315.302 53.4518 315.814 51.9798H320.518C319.814 54.5078 318.406 56.5718 316.294 58.1718C314.182 59.7398 311.558 60.5238 308.422 60.5238C305.926 60.5238 303.686 59.9638 301.702 58.8438C299.75 57.7238 298.214 56.1398 297.094 54.0918C295.974 52.0118 295.414 49.6118 295.414 46.8918C295.414 44.1718 295.958 41.7878 297.046 39.7398C298.134 37.6918 299.654 36.1238 301.606 35.0358C303.59 33.9158 305.862 33.3558 308.422 33.3558C310.918 33.3558 313.126 33.8998 315.046 34.9878C316.966 36.0758 318.438 37.5798 319.462 39.4998C320.518 41.3878 321.046 43.5318 321.046 45.9318ZM316.534 45.0198C316.534 43.3558 316.166 41.9318 315.43 40.7478C314.694 39.5318 313.686 38.6198 312.406 38.0118C311.158 37.3718 309.766 37.0518 308.23 37.0518C306.022 37.0518 304.134 37.7558 302.566 39.1638C301.03 40.5718 300.15 42.5238 299.926 45.0198H316.534ZM336.603 56.0598L344.763 33.7878H349.419L339.099 60.0918H334.011L323.691 33.7878H328.395L336.603 56.0598Z" fill="#4B4848"/>
<defs>
<filter id="filter0_d_51_3" x="2.45453" y="13.2725" width="102.273" height="63.7275" filterUnits="userSpaceOnUse" color-interpolation-filters="sRGB">
<feFlood flood-opacity="0" result="BackgroundImageFix"/>
<feColorMatrix in="SourceAlpha" type="matrix" values="0 0 0 0 0 0 0 0 0 0 0 0 0 0 0 0 0 0 127 0" result="hardAlpha"/>
<feOffset dy="4"/>
<feGaussianBlur stdDeviation="2"/>
<feComposite in2="hardAlpha" operator="out"/>
<feColorMatrix type="matrix" values="0 0 0 0 0.0669931 0 0 0 0 0.916667 0 0 0 0 0.0496528 0 0 0 1 0"/>
<feBlend mode="normal" in2="BackgroundImageFix" result="effect1_dropShadow_51_3"/>
<feBlend mode="normal" in="SourceGraphic" in2="effect1_dropShadow_51_3" result="shape"/>
</filter>
</defs>
</svg>
