<svg width="266" height="54" viewBox="0 0 266 54" fill="none" xmlns="http://www.w3.org/2000/svg">
<path d="M74.584 14.908C77.32 14.908 79.684 15.424 81.676 16.456C83.692 17.464 85.228 18.916 86.284 20.812C87.364 22.708 87.904 24.94 87.904 27.508C87.904 30.076 87.364 32.308 86.284 34.204C85.228 36.076 83.692 37.516 81.676 38.524C79.684 39.508 77.32 40 74.584 40H66.772V14.908H74.584ZM74.584 37.3C77.824 37.3 80.296 36.448 82 34.744C83.704 33.016 84.556 30.604 84.556 27.508C84.556 24.388 83.692 21.952 81.964 20.2C80.26 18.448 77.8 17.572 74.584 17.572H70.048V37.3H74.584ZM91.0011 30.064C91.0011 28.048 91.4091 26.284 92.2251 24.772C93.0411 23.236 94.1571 22.048 95.5731 21.208C97.0131 20.368 98.6091 19.948 100.361 19.948C102.089 19.948 103.589 20.32 104.861 21.064C106.133 21.808 107.081 22.744 107.705 23.872V20.272H111.017V40H107.705V36.328C107.057 37.48 106.085 38.44 104.789 39.208C103.517 39.952 102.029 40.324 100.325 40.324C98.5731 40.324 96.9891 39.892 95.5731 39.028C94.1571 38.164 93.0411 36.952 92.2251 35.392C91.4091 33.832 91.0011 32.056 91.0011 30.064ZM107.705 30.1C107.705 28.612 107.405 27.316 106.805 26.212C106.205 25.108 105.389 24.268 104.357 23.692C103.349 23.092 102.233 22.792 101.009 22.792C99.7851 22.792 98.6691 23.08 97.6611 23.656C96.6531 24.232 95.8491 25.072 95.2491 26.176C94.6491 27.28 94.3491 28.576 94.3491 30.064C94.3491 31.576 94.6491 32.896 95.2491 34.024C95.8491 35.128 96.6531 35.98 97.6611 36.58C98.6691 37.156 99.7851 37.444 101.009 37.444C102.233 37.444 103.349 37.156 104.357 36.58C105.389 35.98 106.205 35.128 106.805 34.024C107.405 32.896 107.705 31.588 107.705 30.1ZM123.537 40.324C122.025 40.324 120.669 40.072 119.469 39.568C118.269 39.04 117.321 38.32 116.625 37.408C115.929 36.472 115.545 35.404 115.473 34.204H118.857C118.953 35.188 119.409 35.992 120.225 36.616C121.065 37.24 122.157 37.552 123.501 37.552C124.749 37.552 125.733 37.276 126.453 36.724C127.173 36.172 127.533 35.476 127.533 34.636C127.533 33.772 127.149 33.136 126.381 32.728C125.613 32.296 124.425 31.876 122.817 31.468C121.353 31.084 120.153 30.7 119.217 30.316C118.305 29.908 117.513 29.32 116.841 28.552C116.193 27.76 115.869 26.728 115.869 25.456C115.869 24.448 116.169 23.524 116.769 22.684C117.369 21.844 118.221 21.184 119.325 20.704C120.429 20.2 121.689 19.948 123.105 19.948C125.289 19.948 127.053 20.5 128.397 21.604C129.741 22.708 130.461 24.22 130.557 26.14H127.281C127.209 25.108 126.789 24.28 126.021 23.656C125.277 23.032 124.269 22.72 122.997 22.72C121.821 22.72 120.885 22.972 120.189 23.476C119.493 23.98 119.145 24.64 119.145 25.456C119.145 26.104 119.349 26.644 119.757 27.076C120.189 27.484 120.717 27.82 121.341 28.084C121.989 28.324 122.877 28.6 124.005 28.912C125.421 29.296 126.573 29.68 127.461 30.064C128.349 30.424 129.105 30.976 129.729 31.72C130.377 32.464 130.713 33.436 130.737 34.636C130.737 35.716 130.437 36.688 129.837 37.552C129.237 38.416 128.385 39.1 127.281 39.604C126.201 40.084 124.953 40.324 123.537 40.324ZM145.154 19.912C146.642 19.912 147.986 20.236 149.186 20.884C150.386 21.508 151.322 22.456 151.994 23.728C152.69 25 153.038 26.548 153.038 28.372V40H149.798V28.84C149.798 26.872 149.306 25.372 148.322 24.34C147.338 23.284 145.994 22.756 144.29 22.756C142.562 22.756 141.182 23.296 140.15 24.376C139.142 25.456 138.638 27.028 138.638 29.092V40H135.362V13.36H138.638V23.08C139.286 22.072 140.174 21.292 141.302 20.74C142.454 20.188 143.738 19.912 145.154 19.912ZM161.665 23.944C162.337 22.768 163.321 21.808 164.617 21.064C165.913 20.32 167.389 19.948 169.045 19.948C170.821 19.948 172.417 20.368 173.833 21.208C175.249 22.048 176.365 23.236 177.181 24.772C177.997 26.284 178.405 28.048 178.405 30.064C178.405 32.056 177.997 33.832 177.181 35.392C176.365 36.952 175.237 38.164 173.797 39.028C172.381 39.892 170.797 40.324 169.045 40.324C167.341 40.324 165.841 39.952 164.545 39.208C163.273 38.464 162.313 37.516 161.665 36.364V40H158.389V13.36H161.665V23.944ZM175.057 30.064C175.057 28.576 174.757 27.28 174.157 26.176C173.557 25.072 172.741 24.232 171.709 23.656C170.701 23.08 169.585 22.792 168.361 22.792C167.161 22.792 166.045 23.092 165.013 23.692C164.005 24.268 163.189 25.12 162.565 26.248C161.965 27.352 161.665 28.636 161.665 30.1C161.665 31.588 161.965 32.896 162.565 34.024C163.189 35.128 164.005 35.98 165.013 36.58C166.045 37.156 167.161 37.444 168.361 37.444C169.585 37.444 170.701 37.156 171.709 36.58C172.741 35.98 173.557 35.128 174.157 34.024C174.757 32.896 175.057 31.576 175.057 30.064ZM191.321 40.324C189.473 40.324 187.793 39.904 186.281 39.064C184.793 38.224 183.617 37.036 182.753 35.5C181.913 33.94 181.493 32.14 181.493 30.1C181.493 28.084 181.925 26.308 182.789 24.772C183.677 23.212 184.877 22.024 186.389 21.208C187.901 20.368 189.593 19.948 191.465 19.948C193.337 19.948 195.029 20.368 196.541 21.208C198.053 22.024 199.241 23.2 200.105 24.736C200.993 26.272 201.437 28.06 201.437 30.1C201.437 32.14 200.981 33.94 200.069 35.5C199.181 37.036 197.969 38.224 196.433 39.064C194.897 39.904 193.193 40.324 191.321 40.324ZM191.321 37.444C192.497 37.444 193.601 37.168 194.633 36.616C195.665 36.064 196.493 35.236 197.117 34.132C197.765 33.028 198.089 31.684 198.089 30.1C198.089 28.516 197.777 27.172 197.153 26.068C196.529 24.964 195.713 24.148 194.705 23.62C193.697 23.068 192.605 22.792 191.429 22.792C190.229 22.792 189.125 23.068 188.117 23.62C187.133 24.148 186.341 24.964 185.741 26.068C185.141 27.172 184.841 28.516 184.841 30.1C184.841 31.708 185.129 33.064 185.705 34.168C186.305 35.272 187.097 36.1 188.081 36.652C189.065 37.18 190.145 37.444 191.321 37.444ZM204.521 30.064C204.521 28.048 204.929 26.284 205.745 24.772C206.561 23.236 207.677 22.048 209.093 21.208C210.533 20.368 212.129 19.948 213.881 19.948C215.609 19.948 217.109 20.32 218.381 21.064C219.653 21.808 220.601 22.744 221.225 23.872V20.272H224.537V40H221.225V36.328C220.577 37.48 219.605 38.44 218.309 39.208C217.037 39.952 215.549 40.324 213.845 40.324C212.093 40.324 210.509 39.892 209.093 39.028C207.677 38.164 206.561 36.952 205.745 35.392C204.929 33.832 204.521 32.056 204.521 30.064ZM221.225 30.1C221.225 28.612 220.925 27.316 220.325 26.212C219.725 25.108 218.909 24.268 217.877 23.692C216.869 23.092 215.753 22.792 214.529 22.792C213.305 22.792 212.189 23.08 211.181 23.656C210.173 24.232 209.369 25.072 208.769 26.176C208.169 27.28 207.869 28.576 207.869 30.064C207.869 31.576 208.169 32.896 208.769 34.024C209.369 35.128 210.173 35.98 211.181 36.58C212.189 37.156 213.305 37.444 214.529 37.444C215.753 37.444 216.869 37.156 217.877 36.58C218.909 35.98 219.725 35.128 220.325 34.024C220.925 32.896 221.225 31.588 221.225 30.1ZM233.349 23.476C233.925 22.348 234.741 21.472 235.797 20.848C236.877 20.224 238.185 19.912 239.721 19.912V23.296H238.857C235.185 23.296 233.349 25.288 233.349 29.272V40H230.073V20.272H233.349V23.476ZM242.278 30.064C242.278 28.048 242.686 26.284 243.502 24.772C244.318 23.236 245.434 22.048 246.85 21.208C248.29 20.368 249.898 19.948 251.674 19.948C253.21 19.948 254.638 20.308 255.958 21.028C257.278 21.724 258.286 22.648 258.982 23.8V13.36H262.294V40H258.982V36.292C258.334 37.468 257.374 38.44 256.102 39.208C254.83 39.952 253.342 40.324 251.638 40.324C249.886 40.324 248.29 39.892 246.85 39.028C245.434 38.164 244.318 36.952 243.502 35.392C242.686 33.832 242.278 32.056 242.278 30.064ZM258.982 30.1C258.982 28.612 258.682 27.316 258.082 26.212C257.482 25.108 256.666 24.268 255.634 23.692C254.626 23.092 253.51 22.792 252.286 22.792C251.062 22.792 249.946 23.08 248.938 23.656C247.93 24.232 247.126 25.072 246.526 26.176C245.926 27.28 245.626 28.576 245.626 30.064C245.626 31.576 245.926 32.896 246.526 34.024C247.126 35.128 247.93 35.98 248.938 36.58C249.946 37.156 251.062 37.444 252.286 37.444C253.51 37.444 254.626 37.156 255.634 36.58C256.666 35.98 257.482 35.128 258.082 34.024C258.682 32.896 258.982 31.588 258.982 30.1Z" fill="#13ABBF"/>
<path d="M37.5244 10.1562H11.1328C4.89502 10.1562 0 14.3848 0 19.2871V41.6992C0 46.6309 4.89502 50 11.1328 50H38.8672C45.105 50 50 46.6309 50 41.6992V0L37.5244 10.1562ZM16.4429 40.6738C14.2822 40.6738 12.4878 39.1992 12.4878 37.4707V23.5156C12.4878 21.7871 14.2822 20.3418 16.4429 20.3418H33.6182C35.7788 20.3418 37.5244 21.7871 37.5244 23.5156V35.5762L43.7622 40.6836H16.4429V40.6738Z" fill="#1358BF"/>
</svg>
