<svg width="32" height="40" viewBox="0 0 32 40" fill="none" xmlns="http://www.w3.org/2000/svg">
<path d="M5.264 22.1967C5.14463 22.604 4.9029 22.9372 4.59016 23.1253C4.27742 23.3134 3.91833 23.3416 3.58918 23.2041C3.26003 23.0665 2.98677 22.7739 2.82746 22.3885C2.66814 22.0031 2.63533 21.5552 2.736 21.14C2.70934 21.24 2.736 21.1367 2.736 21.1367C2.78342 20.9531 2.83861 20.7729 2.90134 20.5967C3.008 20.28 3.16534 19.8433 3.38134 19.3267C3.82134 18.2933 4.50667 16.9167 5.51734 15.54C7.55734 12.7567 10.8987 10 16 10C21.1013 10 24.4427 12.7567 26.4827 15.54C27.5716 17.0333 28.4547 18.742 29.096 20.5967L29.2187 20.9733C29.2267 21 29.2533 21.1733 29.28 21.34L29.3333 21.6667C29.3333 21.6667 29.5573 22.7767 28.4213 23.2467C28.0868 23.3863 27.7216 23.3546 27.4057 23.1584C27.0899 22.9622 26.849 22.6176 26.736 22.2V22.19L26.72 22.1367C26.586 21.7085 26.4329 21.29 26.2613 20.8833C25.7872 19.7651 25.2011 18.7267 24.5173 17.7933C22.8907 15.5767 20.232 13.3333 16 13.3333C11.768 13.3333 9.10934 15.5767 7.48267 17.7933C6.60198 19.0002 5.88578 20.3797 5.36267 21.8767C5.33469 21.9627 5.30802 22.0494 5.28267 22.1367L5.264 22.1967ZM16 16.6667C14.5855 16.6667 13.229 17.369 12.2288 18.6193C11.2286 19.8695 10.6667 21.5652 10.6667 23.3333C10.6667 25.1014 11.2286 26.7971 12.2288 28.0474C13.229 29.2976 14.5855 30 16 30C17.4145 30 18.771 29.2976 19.7712 28.0474C20.7714 26.7971 21.3333 25.1014 21.3333 23.3333C21.3333 21.5652 20.7714 19.8695 19.7712 18.6193C18.771 17.369 17.4145 16.6667 16 16.6667ZM13.3333 23.3333C13.3333 22.4493 13.6143 21.6014 14.1144 20.9763C14.6145 20.3512 15.2928 20 16 20C16.7072 20 17.3855 20.3512 17.8856 20.9763C18.3857 21.6014 18.6667 22.4493 18.6667 23.3333C18.6667 24.2174 18.3857 25.0652 17.8856 25.6904C17.3855 26.3155 16.7072 26.6667 16 26.6667C15.2928 26.6667 14.6145 26.3155 14.1144 25.6904C13.6143 25.0652 13.3333 24.2174 13.3333 23.3333Z" fill="#333F46"/>
</svg>
