<svg width="421" height="80" viewBox="0 0 421 80" fill="none" xmlns="http://www.w3.org/2000/svg">
<g filter="url(#filter0_d_24_80)">
<path d="M7.07723 45.6364V42L36.35 27.0909V32.9091L13.8954 43.7273L14.0772 43.3636V44.2727L13.8954 43.9091L36.35 54.7273V60.5455L7.07723 45.6364ZM64.1738 13.2727L49.1738 69H44.2647L59.2647 13.2727H64.1738ZM101.35 45.6364L72.0772 60.5455V54.7273L94.5318 43.9091L94.35 44.2727V43.3636L94.5318 43.7273L72.0772 32.9091V27.0909L101.35 42V45.6364Z" fill="#11EA0D"/>
</g>
<path d="M136.764 42.8598C137.98 43.0518 139.084 43.5478 140.076 44.3478C141.1 45.1478 141.9 46.1398 142.476 47.3238C143.084 48.5078 143.388 49.7718 143.388 51.1158C143.388 52.8118 142.956 54.3478 142.092 55.7238C141.228 57.0678 139.964 58.1398 138.3 58.9398C136.668 59.7078 134.732 60.0918 132.492 60.0918H120.012V26.6358H132.012C134.284 26.6358 136.22 27.0198 137.82 27.7878C139.42 28.5238 140.62 29.5318 141.42 30.8118C142.22 32.0918 142.62 33.5318 142.62 35.1318C142.62 37.1158 142.076 38.7638 140.988 40.0758C139.932 41.3558 138.524 42.2838 136.764 42.8598ZM124.38 41.0838H131.724C133.772 41.0838 135.356 40.6038 136.476 39.6438C137.596 38.6838 138.156 37.3558 138.156 35.6598C138.156 33.9638 137.596 32.6358 136.476 31.6758C135.356 30.7158 133.74 30.2358 131.628 30.2358H124.38V41.0838ZM132.108 56.4918C134.284 56.4918 135.98 55.9798 137.196 54.9558C138.412 53.9318 139.02 52.5078 139.02 50.6838C139.02 48.8278 138.38 47.3718 137.1 46.3158C135.82 45.2278 134.108 44.6838 131.964 44.6838H124.38V56.4918H132.108ZM172.778 33.7878V60.0918H168.41V56.2038C167.578 57.5478 166.41 58.6038 164.906 59.3718C163.434 60.1078 161.802 60.4758 160.01 60.4758C157.962 60.4758 156.122 60.0598 154.49 59.2278C152.858 58.3638 151.562 57.0838 150.602 55.3878C149.674 53.6918 149.21 51.6278 149.21 49.1958V33.7878H153.53V48.6198C153.53 51.2118 154.186 53.2118 155.498 54.6198C156.81 55.9958 158.602 56.6838 160.874 56.6838C163.21 56.6838 165.05 55.9638 166.394 54.5238C167.738 53.0838 168.41 50.9878 168.41 48.2358V33.7878H172.778ZM194.841 60.0918L184.521 48.4758V60.0918H180.153V24.5718H184.521V45.4518L194.649 33.7878H200.745L188.361 46.8918L200.793 60.0918H194.841ZM203.224 46.8438C203.224 44.1558 203.768 41.8038 204.856 39.7878C205.944 37.7398 207.432 36.1558 209.32 35.0358C211.24 33.9158 213.368 33.3558 215.704 33.3558C218.008 33.3558 220.008 33.8518 221.704 34.8438C223.4 35.8358 224.664 37.0838 225.496 38.5878V33.7878H229.912V60.0918H225.496V55.1958C224.632 56.7318 223.336 58.0118 221.608 59.0358C219.912 60.0278 217.928 60.5238 215.656 60.5238C213.32 60.5238 211.208 59.9478 209.32 58.7958C207.432 57.6438 205.944 56.0278 204.856 53.9478C203.768 51.8678 203.224 49.4998 203.224 46.8438ZM225.496 46.8918C225.496 44.9078 225.096 43.1798 224.296 41.7078C223.496 40.2358 222.408 39.1158 221.032 38.3478C219.688 37.5478 218.2 37.1478 216.568 37.1478C214.936 37.1478 213.448 37.5318 212.104 38.2998C210.76 39.0678 209.688 40.1878 208.888 41.6598C208.088 43.1318 207.688 44.8598 207.688 46.8438C207.688 48.8598 208.088 50.6198 208.888 52.1238C209.688 53.5958 210.76 54.7318 212.104 55.5318C213.448 56.2998 214.936 56.6838 216.568 56.6838C218.2 56.6838 219.688 56.2998 221.032 55.5318C222.408 54.7318 223.496 53.5958 224.296 52.1238C225.096 50.6198 225.496 48.8758 225.496 46.8918ZM255.534 40.6518V44.3478H236.382V40.6518H255.534ZM274.147 26.6358C277.795 26.6358 280.947 27.3238 283.603 28.6998C286.291 30.0438 288.339 31.9798 289.747 34.5078C291.187 37.0358 291.907 40.0118 291.907 43.4358C291.907 46.8598 291.187 49.8358 289.747 52.3638C288.339 54.8598 286.291 56.7798 283.603 58.1238C280.947 59.4358 277.795 60.0918 274.147 60.0918H263.731V26.6358H274.147ZM274.147 56.4918C278.467 56.4918 281.763 55.3558 284.035 53.0838C286.307 50.7798 287.443 47.5638 287.443 43.4358C287.443 39.2758 286.291 36.0278 283.987 33.6918C281.715 31.3558 278.435 30.1878 274.147 30.1878H268.099V56.4918H274.147ZM321.669 45.9318C321.669 46.7638 321.621 47.6438 321.525 48.5718H300.501C300.661 51.1638 301.541 53.1958 303.141 54.6678C304.773 56.1078 306.741 56.8278 309.045 56.8278C310.933 56.8278 312.501 56.3958 313.749 55.5318C315.029 54.6358 315.925 53.4518 316.437 51.9798H321.141C320.437 54.5078 319.029 56.5718 316.917 58.1718C314.805 59.7398 312.181 60.5238 309.045 60.5238C306.549 60.5238 304.309 59.9638 302.325 58.8438C300.373 57.7238 298.837 56.1398 297.717 54.0918C296.597 52.0118 296.037 49.6118 296.037 46.8918C296.037 44.1718 296.581 41.7878 297.669 39.7398C298.757 37.6918 300.277 36.1238 302.229 35.0358C304.213 33.9158 306.485 33.3558 309.045 33.3558C311.541 33.3558 313.749 33.8998 315.669 34.9878C317.589 36.0758 319.061 37.5798 320.085 39.4998C321.141 41.3878 321.669 43.5318 321.669 45.9318ZM317.157 45.0198C317.157 43.3558 316.789 41.9318 316.053 40.7478C315.317 39.5318 314.309 38.6198 313.029 38.0118C311.781 37.3718 310.389 37.0518 308.853 37.0518C306.645 37.0518 304.757 37.7558 303.189 39.1638C301.653 40.5718 300.773 42.5238 300.549 45.0198H317.157ZM337.226 56.0598L345.386 33.7878H350.042L339.722 60.0918H334.634L324.314 33.7878H329.018L337.226 56.0598Z" fill="#F5F5F5"/>
<defs>
<filter id="filter0_d_24_80" x="3.07721" y="13.2729" width="102.273" height="63.7271" filterUnits="userSpaceOnUse" color-interpolation-filters="sRGB">
<feFlood flood-opacity="0" result="BackgroundImageFix"/>
<feColorMatrix in="SourceAlpha" type="matrix" values="0 0 0 0 0 0 0 0 0 0 0 0 0 0 0 0 0 0 127 0" result="hardAlpha"/>
<feOffset dy="4"/>
<feGaussianBlur stdDeviation="2"/>
<feComposite in2="hardAlpha" operator="out"/>
<feColorMatrix type="matrix" values="0 0 0 0 0.0669931 0 0 0 0 0.916667 0 0 0 0 0.0496528 0 0 0 1 0"/>
<feBlend mode="normal" in2="BackgroundImageFix" result="effect1_dropShadow_24_80"/>
<feBlend mode="normal" in="SourceGraphic" in2="effect1_dropShadow_24_80" result="shape"/>
</filter>
</defs>
</svg>
