<svg width="90" height="90" viewBox="0 0 90 90" fill="none" xmlns="http://www.w3.org/2000/svg">
<circle cx="45" cy="45" r="45" fill="url(#paint0_linear_13_6)"/>
<path d="M46.505 33.9626C40.1202 33.9626 34.9702 39.1137 34.9702 45.5C34.9702 51.8863 40.1202 57.0374 46.505 57.0374C52.8899 57.0374 58.0399 51.8863 58.0399 45.5C58.0399 39.1137 52.8899 33.9626 46.505 33.9626ZM46.505 53.0008C42.379 53.0008 39.0059 49.637 39.0059 45.5C39.0059 41.363 42.3689 37.9992 46.505 37.9992C50.6411 37.9992 54.0042 41.363 54.0042 45.5C54.0042 49.637 50.6311 53.0008 46.505 53.0008ZM61.2022 33.4906C61.2022 34.9868 59.9975 36.1817 58.5117 36.1817C57.0159 36.1817 55.8212 34.9767 55.8212 33.4906C55.8212 32.0045 57.0259 30.7996 58.5117 30.7996C59.9975 30.7996 61.2022 32.0045 61.2022 33.4906ZM68.8419 36.2219C68.6712 32.617 67.848 29.4239 65.2078 26.7931C62.5775 24.1623 59.3851 23.3389 55.7811 23.1582C52.0666 22.9473 40.9334 22.9473 37.2189 23.1582C33.6249 23.3289 30.4325 24.1522 27.7922 26.7831C25.152 29.4139 24.3388 32.607 24.1581 36.2118C23.9473 39.9271 23.9473 51.0629 24.1581 54.7781C24.3288 58.383 25.152 61.5761 27.7922 64.2069C30.4325 66.8377 33.6149 67.6611 37.2189 67.8418C40.9334 68.0527 52.0666 68.0527 55.7811 67.8418C59.3851 67.6711 62.5775 66.8478 65.2078 64.2069C67.838 61.5761 68.6612 58.383 68.8419 54.7781C69.0527 51.0629 69.0527 39.9371 68.8419 36.2219ZM64.0432 58.7645C63.2602 60.7326 61.7443 62.2489 59.7666 63.0421C56.8051 64.2169 49.7777 63.9458 46.505 63.9458C43.2323 63.9458 36.1949 64.2069 33.2434 63.0421C31.2758 62.2589 29.7599 60.7427 28.9668 58.7645C27.7922 55.8024 28.0633 48.7735 28.0633 45.5C28.0633 42.2265 27.8023 35.1876 28.9668 32.2355C29.7499 30.2674 31.2658 28.7511 33.2434 27.9579C36.205 26.7831 43.2323 27.0542 46.505 27.0542C49.7777 27.0542 56.8151 26.7931 59.7666 27.9579C61.7342 28.7411 63.2501 30.2573 64.0432 32.2355C65.2178 35.1976 64.9467 42.2265 64.9467 45.5C64.9467 48.7735 65.2178 55.8124 64.0432 58.7645Z" fill="white"/>
<defs>
<linearGradient id="paint0_linear_13_6" x1="45" y1="0" x2="45" y2="90" gradientUnits="userSpaceOnUse">
<stop stop-color="#6900D2"/>
<stop offset="0.755208" stop-color="#FF3DB3"/>
<stop offset="1" stop-color="#FD0E9D"/>
</linearGradient>
</defs>
</svg>
