<svg width="90" height="90" viewBox="0 0 90 90" fill="none" xmlns="http://www.w3.org/2000/svg">
<circle cx="45" cy="45" r="45" fill="#0A0909"/>
<path d="M69.0512 38.5961L46.1997 23.3616C45.4197 22.8817 44.5873 22.8773 43.8001 23.3616L20.9486 38.5961C20.3627 38.9866 20 39.6842 20 40.3817V55.616C20 56.3136 20.3627 57.0112 20.9487 57.4018L43.8002 72.6384C44.5802 73.1183 45.4126 73.1227 46.1998 72.6384L69.0513 57.4018C69.6372 57.0113 70 56.3136 70 55.616V40.3817C69.9999 39.6842 69.6372 38.9866 69.0512 38.5961ZM47.1484 29.1651L63.9732 40.3817L56.4676 45.4041L47.1484 39.1819V29.1651ZM42.8515 29.1651V39.1819L33.5323 45.4041L26.0267 40.3817L42.8515 29.1651ZM24.2969 44.3996L29.6819 47.9989L24.2969 51.5983V44.3996ZM42.8515 66.8328L26.0267 55.6161L33.5323 50.5938L42.8515 56.8159V66.8328ZM45 53.0771L37.4106 47.9989L45 42.9208L52.5893 47.9989L45 53.0771ZM47.1484 66.8328V56.8159L56.4676 50.5938L63.9732 55.6161L47.1484 66.8328ZM65.703 51.5983L60.318 47.9989L65.703 44.3996V51.5983Z" fill="white"/>
</svg>
