<svg width="421" height="80" viewBox="0 0 421 80" fill="none" xmlns="http://www.w3.org/2000/svg">
<g filter="url(#filter0_d_1_7)">
<path d="M7.07723 45.6364V42L36.35 27.0909V32.9091L13.8954 43.7273L14.0772 43.3636V44.2727L13.8954 43.9091L36.35 54.7273V60.5455L7.07723 45.6364ZM64.1738 13.2727L49.1738 69H44.2647L59.2647 13.2727H64.1738ZM101.35 45.6364L72.0772 60.5455V54.7273L94.5318 43.9091L94.35 44.2727V43.3636L94.5318 43.7273L72.0772 32.9091V27.0909L101.35 42V45.6364Z" fill="#11EA0D"/>
</g>
<path d="M136.764 42.86C137.98 43.052 139.084 43.548 140.076 44.348C141.1 45.148 141.9 46.14 142.476 47.324C143.084 48.508 143.388 49.772 143.388 51.116C143.388 52.812 142.956 54.348 142.092 55.724C141.228 57.068 139.964 58.14 138.3 58.94C136.668 59.708 134.732 60.092 132.492 60.092H120.012V26.636H132.012C134.284 26.636 136.22 27.02 137.82 27.788C139.42 28.524 140.62 29.532 141.42 30.812C142.22 32.092 142.62 33.532 142.62 35.132C142.62 37.116 142.076 38.764 140.988 40.076C139.932 41.356 138.524 42.284 136.764 42.86ZM124.38 41.084H131.724C133.772 41.084 135.356 40.604 136.476 39.644C137.596 38.684 138.156 37.356 138.156 35.66C138.156 33.964 137.596 32.636 136.476 31.676C135.356 30.716 133.74 30.236 131.628 30.236H124.38V41.084ZM132.108 56.492C134.284 56.492 135.98 55.98 137.196 54.956C138.412 53.932 139.02 52.508 139.02 50.684C139.02 48.828 138.38 47.372 137.1 46.316C135.82 45.228 134.108 44.684 131.964 44.684H124.38V56.492H132.108ZM172.778 33.788V60.092H168.41V56.204C167.578 57.548 166.41 58.604 164.906 59.372C163.434 60.108 161.802 60.476 160.01 60.476C157.962 60.476 156.122 60.06 154.49 59.228C152.858 58.364 151.562 57.084 150.602 55.388C149.674 53.692 149.21 51.628 149.21 49.196V33.788H153.53V48.62C153.53 51.212 154.186 53.212 155.498 54.62C156.81 55.996 158.602 56.684 160.874 56.684C163.21 56.684 165.05 55.964 166.394 54.524C167.738 53.084 168.41 50.988 168.41 48.236V33.788H172.778ZM194.841 60.092L184.521 48.476V60.092H180.153V24.572H184.521V45.452L194.649 33.788H200.745L188.361 46.892L200.793 60.092H194.841ZM203.224 46.844C203.224 44.156 203.768 41.804 204.856 39.788C205.944 37.74 207.432 36.156 209.32 35.036C211.24 33.916 213.368 33.356 215.704 33.356C218.008 33.356 220.008 33.852 221.704 34.844C223.4 35.836 224.664 37.084 225.496 38.588V33.788H229.912V60.092H225.496V55.196C224.632 56.732 223.336 58.012 221.608 59.036C219.912 60.028 217.928 60.524 215.656 60.524C213.32 60.524 211.208 59.948 209.32 58.796C207.432 57.644 205.944 56.028 204.856 53.948C203.768 51.868 203.224 49.5 203.224 46.844ZM225.496 46.892C225.496 44.908 225.096 43.18 224.296 41.708C223.496 40.236 222.408 39.116 221.032 38.348C219.688 37.548 218.2 37.148 216.568 37.148C214.936 37.148 213.448 37.532 212.104 38.3C210.76 39.068 209.688 40.188 208.888 41.66C208.088 43.132 207.688 44.86 207.688 46.844C207.688 48.86 208.088 50.62 208.888 52.124C209.688 53.596 210.76 54.732 212.104 55.532C213.448 56.3 214.936 56.684 216.568 56.684C218.2 56.684 219.688 56.3 221.032 55.532C222.408 54.732 223.496 53.596 224.296 52.124C225.096 50.62 225.496 48.876 225.496 46.892ZM255.534 40.652V44.348H236.382V40.652H255.534ZM274.147 26.636C277.795 26.636 280.947 27.324 283.603 28.7C286.291 30.044 288.339 31.98 289.747 34.508C291.187 37.036 291.907 40.012 291.907 43.436C291.907 46.86 291.187 49.836 289.747 52.364C288.339 54.86 286.291 56.78 283.603 58.124C280.947 59.436 277.795 60.092 274.147 60.092H263.731V26.636H274.147ZM274.147 56.492C278.467 56.492 281.763 55.356 284.035 53.084C286.307 50.78 287.443 47.564 287.443 43.436C287.443 39.276 286.291 36.028 283.987 33.692C281.715 31.356 278.435 30.188 274.147 30.188H268.099V56.492H274.147ZM321.669 45.932C321.669 46.764 321.621 47.644 321.525 48.572H300.501C300.661 51.164 301.541 53.196 303.141 54.668C304.773 56.108 306.741 56.828 309.045 56.828C310.933 56.828 312.501 56.396 313.749 55.532C315.029 54.636 315.925 53.452 316.437 51.98H321.141C320.437 54.508 319.029 56.572 316.917 58.172C314.805 59.74 312.181 60.524 309.045 60.524C306.549 60.524 304.309 59.964 302.325 58.844C300.373 57.724 298.837 56.14 297.717 54.092C296.597 52.012 296.037 49.612 296.037 46.892C296.037 44.172 296.581 41.788 297.669 39.74C298.757 37.692 300.277 36.124 302.229 35.036C304.213 33.916 306.485 33.356 309.045 33.356C311.541 33.356 313.749 33.9 315.669 34.988C317.589 36.076 319.061 37.58 320.085 39.5C321.141 41.388 321.669 43.532 321.669 45.932ZM317.157 45.02C317.157 43.356 316.789 41.932 316.053 40.748C315.317 39.532 314.309 38.62 313.029 38.012C311.781 37.372 310.389 37.052 308.853 37.052C306.645 37.052 304.757 37.756 303.189 39.164C301.653 40.572 300.773 42.524 300.549 45.02H317.157ZM337.226 56.06L345.386 33.788H350.042L339.722 60.092H334.634L324.314 33.788H329.018L337.226 56.06Z" fill="#F5F5F5"/>
<defs>
<filter id="filter0_d_1_7" x="3.07721" y="13.2727" width="102.273" height="63.7273" filterUnits="userSpaceOnUse" color-interpolation-filters="sRGB">
<feFlood flood-opacity="0" result="BackgroundImageFix"/>
<feColorMatrix in="SourceAlpha" type="matrix" values="0 0 0 0 0 0 0 0 0 0 0 0 0 0 0 0 0 0 127 0" result="hardAlpha"/>
<feOffset dy="4"/>
<feGaussianBlur stdDeviation="2"/>
<feComposite in2="hardAlpha" operator="out"/>
<feColorMatrix type="matrix" values="0 0 0 0 0.0669931 0 0 0 0 0.916667 0 0 0 0 0.0496528 0 0 0 1 0"/>
<feBlend mode="normal" in2="BackgroundImageFix" result="effect1_dropShadow_1_7"/>
<feBlend mode="normal" in="SourceGraphic" in2="effect1_dropShadow_1_7" result="shape"/>
</filter>
</defs>
</svg>
