<svg width="90" height="90" viewBox="0 0 90 90" fill="none" xmlns="http://www.w3.org/2000/svg">
<circle cx="45" cy="45" r="45" fill="#1358BF"/>
<path d="M33.0728 64H23.7433V33.9558H33.0728V64ZM28.403 29.8575C25.4198 29.8575 23 27.3865 23 24.4031C23 22.9701 23.5692 21.5958 24.5825 20.5825C25.5958 19.5693 26.97 19 28.403 19C29.836 19 31.2103 19.5693 32.2235 20.5825C33.2368 21.5958 33.806 22.9701 33.806 24.4031C33.806 27.3865 31.3853 29.8575 28.403 29.8575ZM67.99 64H58.6806V49.3747C58.6806 45.8891 58.6103 41.4191 53.83 41.4191C48.9795 41.4191 48.2362 45.2061 48.2362 49.1236V64H38.9167V33.9558H47.8645V38.0541H47.9951C49.2406 35.6936 52.2831 33.2024 56.8223 33.2024C66.2643 33.2024 68 39.4202 68 47.4963V64H67.99Z" fill="white"/>
</svg>
