<svg width="50" height="51" viewBox="0 0 50 51" fill="none" xmlns="http://www.w3.org/2000/svg">
<path d="M25.107 50.8052C24.3031 50.8052 23.555 50.4379 23.0552 49.7961L5.52155 26.3809C5.22793 25.9887 5.30133 25.4306 5.68584 25.1311C6.0686 24.8351 6.61565 24.9082 6.91103 25.2987L24.4341 48.6996C24.7453 49.1007 25.4583 49.1132 25.7887 48.6871C25.9774 48.4339 45.715 22.0752 46.0296 21.6419C47.6899 18.9016 48.2318 15.5621 47.5134 12.2958C46.4787 7.58356 42.6581 3.80911 38.0056 2.90339C33.5697 2.03689 29.2056 4.56864 26.5996 7.22341C25.5492 8.28782 23.9151 8.28782 22.8716 7.22341C21.1536 5.47436 19.3901 4.2174 17.6336 3.49175C15.8421 2.75006 14.0192 2.55393 12.2085 2.90339C7.55595 3.80911 3.73359 7.58356 2.70066 12.294C1.98232 15.5604 2.52238 18.8998 4.21946 21.6954C4.47464 22.1144 4.34705 22.6635 3.93807 22.9221C3.5291 23.1806 2.98904 23.0522 2.73561 22.6332C0.795588 19.4382 0.176878 15.6281 0.994833 11.9036C2.18157 6.50846 6.55623 2.18665 11.8817 1.14899C14.0227 0.733569 16.1794 0.963566 18.289 1.83542C20.264 2.65021 22.2197 4.03733 24.1073 5.95754C24.4656 6.32125 25.0057 6.32482 25.364 5.95754C28.2897 2.98005 33.2377 0.155901 38.3341 1.14899C43.6613 2.18665 48.036 6.50846 49.221 11.9036C50.0389 15.6281 49.4202 19.4382 47.4802 22.6332C47.4488 22.6849 47.4121 22.7455 27.1694 49.7818C26.6591 50.4379 25.911 50.8052 25.107 50.8052Z" fill="white"/>
</svg>
