<svg width="72" height="79" viewBox="0 0 72 79" fill="none" xmlns="http://www.w3.org/2000/svg">
<path d="M66 39.5104C66 57.2642 52.542 71.7081 36 71.7081C19.458 71.7081 6 57.2642 6 39.5104C6 21.7565 19.458 7.3126 36 7.3126C52.542 7.3126 66 21.7565 66 39.5104ZM72 39.5104C72 18.1729 55.8809 0.873047 36 0.873047C16.1189 0.873047 0 18.1729 0 39.5104C0 60.8479 16.1189 78.1477 36 78.1477C55.8809 78.1477 72 60.8479 72 39.5104ZM36 45.95L22.5 31.461L18 36.3776L36 55.6093L54 36.3776L49.5 31.461L36 45.95Z" fill="#06865F"/>
</svg>
