<svg width="47" height="44" viewBox="0 0 47 44" fill="none" xmlns="http://www.w3.org/2000/svg">
<path d="M10.4458 43.5094H0.770833V14.4604H10.4458V43.5094ZM5.60313 10.4978C2.50938 10.4978 0 8.10866 0 5.22416C2.21437e-08 3.83862 0.590328 2.50984 1.64112 1.53012C2.69191 0.550401 4.11708 0 5.60313 0C7.08917 0 8.51434 0.550401 9.56513 1.53012C10.6159 2.50984 11.2063 3.83862 11.2063 5.22416C11.2063 8.10866 8.69583 10.4978 5.60313 10.4978ZM46.6562 43.5094H37.0021V29.3685C37.0021 25.9984 36.9292 21.6765 31.9719 21.6765C26.9417 21.6765 26.1708 25.338 26.1708 29.1257V43.5094H16.5063V14.4604H25.7854V18.423H25.9208C27.2125 16.1406 30.3677 13.732 35.075 13.732C44.8667 13.732 46.6667 19.7438 46.6667 27.5524V43.5094H46.6562Z" fill="white"/>
</svg>
