<svg width="47" height="44" viewBox="0 0 47 44" fill="none" xmlns="http://www.w3.org/2000/svg">
<path d="M45.7811 13.5715L24.453 0.314692C23.725 -0.102983 22.9481 -0.106807 22.2135 0.314692L0.885389 13.5715C0.338515 13.9113 0 14.5184 0 15.1254V28.3821C0 28.9891 0.338515 29.5961 0.88548 29.936L22.2136 43.1947C22.9415 43.6124 23.7185 43.6162 24.4531 43.1947L45.7812 29.936C46.3281 29.5962 46.6667 28.9891 46.6667 28.3821V15.1254C46.6666 14.5184 46.3281 13.9113 45.7811 13.5715ZM25.3385 5.36477L41.0416 15.1254L34.0364 19.4958L25.3385 14.0813V5.36477ZM21.3281 5.36477V14.0813L12.6301 19.4958L5.62496 15.1254L21.3281 5.36477ZM4.01041 18.6217L9.03645 21.7538L4.01041 24.8859V18.6217ZM21.3281 38.1428L5.62496 28.3822L12.6301 24.0118L21.3281 29.4262V38.1428ZM23.3333 26.1727L16.2499 21.7538L23.3333 17.3348L30.4167 21.7538L23.3333 26.1727ZM25.3385 38.1428V29.4262L34.0364 24.0118L41.0416 28.3822L25.3385 38.1428ZM42.6562 24.8859L37.6301 21.7538L42.6562 18.6217V24.8859Z" fill="#F5F5F5"/>
</svg>
