<svg width="47" height="44" viewBox="0 0 47 44" fill="none" xmlns="http://www.w3.org/2000/svg">
<path d="M23.3385 10.5994C16.7172 10.5994 11.3765 15.58 11.3765 21.7547C11.3765 27.9294 16.7172 32.91 23.3385 32.91C29.9598 32.91 35.3006 27.9294 35.3006 21.7547C35.3006 15.58 29.9598 10.5994 23.3385 10.5994ZM23.3385 29.0071C19.0597 29.0071 15.5616 25.7547 15.5616 21.7547C15.5616 17.7547 19.0493 14.5023 23.3385 14.5023C27.6278 14.5023 31.1154 17.7547 31.1154 21.7547C31.1154 25.7547 27.6174 29.0071 23.3385 29.0071ZM38.58 10.1431C38.58 11.5897 37.3307 12.7451 35.7899 12.7451C34.2387 12.7451 32.9998 11.58 32.9998 10.1431C32.9998 8.70625 34.2491 7.54121 35.7899 7.54121C37.3307 7.54121 38.58 8.70625 38.58 10.1431ZM46.5027 12.7839C46.3257 9.29848 45.472 6.21112 42.734 3.66745C40.0063 1.12378 36.6957 0.327668 32.9582 0.152912C29.1062 -0.0509705 17.5605 -0.0509705 13.7085 0.152912C9.98141 0.317959 6.67076 1.11407 3.9327 3.65774C1.19465 6.20141 0.351366 9.28877 0.163971 12.7742C-0.054657 16.3664 -0.054657 27.1333 0.163971 30.7255C0.340956 34.2109 1.19465 37.2983 3.9327 39.8419C6.67076 42.3856 9.971 43.1817 13.7085 43.3565C17.5605 43.5604 29.1062 43.5604 32.9582 43.3565C36.6957 43.1914 40.0063 42.3953 42.734 39.8419C45.4616 37.2983 46.3153 34.2109 46.5027 30.7255C46.7213 27.1333 46.7213 16.3761 46.5027 12.7839ZM41.5263 34.5798C40.7143 36.4827 39.1422 37.9488 37.0913 38.7157C34.0201 39.8517 26.7325 39.5895 23.3385 39.5895C19.9446 39.5895 12.6466 39.8419 9.5858 38.7157C7.54527 37.9585 5.97323 36.4925 5.15077 34.5798C3.9327 31.7158 4.21379 24.9197 4.21379 21.7547C4.21379 18.5897 3.94311 11.7839 5.15077 8.92955C5.96282 7.02665 7.53486 5.56064 9.5858 4.79365C12.657 3.65774 19.9446 3.91987 23.3385 3.91987C26.7325 3.91987 34.0305 3.66745 37.0913 4.79365C39.1318 5.55093 40.7038 7.01694 41.5263 8.92955C42.7444 11.7936 42.4633 18.5897 42.4633 21.7547C42.4633 24.9197 42.7444 31.7255 41.5263 34.5798Z" fill="white"/>
</svg>
